<svg width="76" height="51" viewBox="0 0 76 51" fill="none" xmlns="http://www.w3.org/2000/svg">
<g clip-path="url(#clip0_315_6536)">
<path d="M54.1847 28.9595V29.0145C54.1847 32.694 51.5096 35.3956 47.1709 35.3956C43.661 35.3956 41.2418 34.002 39.5722 32.0217L42.5215 29.204C43.856 30.7076 45.2514 31.5449 47.2258 31.5449C48.8406 31.5449 49.9801 30.6281 49.9801 29.1734V29.1184C49.9801 27.5292 48.5603 26.6369 46.1655 26.6369H44.3861L43.7158 23.9047L49.9679 17.6153L47.4634 19.2289H40.7117V15.5494H53.8801V18.7827L48.9503 23.4952C51.5949 23.9414 54.1847 25.335 54.1847 28.9595ZM41.967 6.63171C41.967 4.86529 43.2344 3.44116 45.0077 3.44116H47.0064L46.4824 3.70398V8.5326C46.4824 8.86877 46.5067 9.16826 46.5616 9.4372C46.592 9.59 46.6408 9.73058 46.6956 9.86505H45.026C43.2527 9.86505 41.967 8.42258 41.967 6.65616V6.63171ZM45.0077 10.678H46.7809V10.0362C46.7992 10.0668 46.8175 10.0973 46.8358 10.1279C46.9638 10.3174 47.1344 10.464 47.3416 10.5618C47.5488 10.6596 47.8108 10.7146 48.1155 10.7146H63.6969V2.63435H62.8438V9.85283H61.9541H48.152C47.9875 9.85283 47.8534 9.82838 47.7498 9.78559C47.6462 9.7367 47.567 9.66335 47.5061 9.55944C47.4452 9.45554 47.4025 9.32107 47.3781 9.14993C47.3538 8.9849 47.3416 8.77709 47.3416 8.5326V2.63435H45.0321C42.6677 2.63435 41.059 4.51079 41.059 6.65616V6.68061C41.059 8.81987 42.6434 10.678 45.0077 10.678ZM69.9978 1.77864H68.127V1.08186C68.127 0.709012 68.2123 0.427852 68.389 0.256711C68.5597 0.0855705 68.8156 0 69.1446 0H69.7479V0.598993H69.1629C69.0289 0.598993 68.9375 0.623442 68.9009 0.672339C68.8582 0.727349 68.8339 0.812919 68.8339 0.922939V1.11853H70.0099V1.77864H69.9978ZM72.161 10.7941C71.9355 10.7941 71.704 10.7635 71.4663 10.6963L71.6918 9.87116C71.7893 9.90172 71.8685 9.92006 71.9294 9.92617C71.9843 9.93229 72.0513 9.9384 72.1305 9.9384C72.2951 9.9384 72.4291 9.91395 72.5327 9.87116C72.6363 9.82227 72.7155 9.74892 72.7765 9.64501C72.8374 9.54111 72.8801 9.40664 72.9044 9.2355C72.9288 9.07047 72.941 8.86266 72.941 8.61817V2.62824H73.7941V8.61817C73.7941 8.95434 73.7697 9.25383 73.7149 9.52277C73.66 9.79171 73.5686 10.0179 73.4407 10.2073C73.3127 10.3968 73.1421 10.5374 72.9349 10.6413C72.7277 10.7452 72.4657 10.7941 72.161 10.7941ZM47.3355 1.77864H46.4824V0.922939H47.3355V1.77864ZM66.1466 4.73082C66.2806 4.47411 66.4513 4.25407 66.6706 4.07071C66.89 3.88734 67.1337 3.74676 67.414 3.64897C67.6822 3.55117 67.9625 3.50228 68.255 3.50228H69.6382L69.1507 3.74676V7.59132H68.2854C67.9625 7.59132 67.6639 7.54854 67.3836 7.45685C67.1033 7.36517 66.8534 7.23682 66.6402 7.06568C66.4269 6.89454 66.2563 6.68672 66.1405 6.43612C66.0186 6.18552 65.9577 5.90436 65.9577 5.58042C65.9455 5.2687 66.0125 4.98754 66.1466 4.73082ZM66.1466 7.76246C66.4695 7.99473 66.8473 8.16587 67.2739 8.27589C67.7005 8.38591 68.1514 8.44092 68.6328 8.44092H68.8582L69.1446 7.83581V8.6854C69.1446 9.13159 69.0167 9.45554 68.7607 9.65113C68.5048 9.8406 68.1453 9.9384 67.6822 9.9384C67.4201 9.9384 67.1825 9.91395 66.9692 9.86505C66.762 9.81615 66.5183 9.73059 66.2502 9.60834L65.982 10.4335C66.3111 10.5557 66.5975 10.6474 66.8534 10.7085C67.1033 10.7697 67.3592 10.8002 67.6151 10.8002C68.45 10.8002 69.0532 10.6046 69.431 10.2073C69.8089 9.81004 69.9978 9.27828 69.9978 8.60594V2.63435H68.6328C68.1087 2.63435 67.6273 2.70769 67.1886 2.8605C66.7559 3.0133 66.3842 3.215 66.0734 3.47783C65.7627 3.74065 65.525 4.04626 65.3544 4.40688C65.1838 4.7675 65.0985 5.15868 65.0985 5.58042C65.0985 6.08773 65.196 6.52169 65.3849 6.88231C65.5677 7.23682 65.8236 7.5302 66.1466 7.76246ZM45.6292 1.77864H44.7761V0.922939H45.6292V1.77864ZM36.7813 2.62824H37.6649V10.6596H36.9397L31.2604 3.43504L31.7601 4.60858V10.6657H30.8765V2.62824H31.7235L37.153 9.54111L36.7813 8.55705V2.62824ZM3.44901 10.7146L0 2.62824H1.01155L1.50513 3.82622L3.86337 9.55333L4.08884 10.1034L4.00353 9.22327L6.72739 2.62824H7.70237L4.25337 10.7146H3.44901ZM18.7441 2.62824H19.652V10.6596H18.7441V2.62824ZM28.4573 6.66838C28.4573 8.49592 27.1533 9.96285 25.3191 9.96285C23.4849 9.96285 22.1565 8.47148 22.1565 6.64394V6.61949C22.1565 4.79195 23.4666 3.32502 25.2947 3.32502C27.1289 3.32502 28.4573 4.81639 28.4573 6.64394V6.66838ZM25.313 2.48766C22.8695 2.48766 21.2059 4.42522 21.2059 6.64394V6.66838C21.2059 8.88099 22.8451 10.8002 25.2886 10.8002C27.7322 10.8002 29.3958 8.86266 29.3958 6.64394V6.61949C29.3958 4.40688 27.7566 2.48766 25.313 2.48766ZM17.2511 8.47759V8.50204C17.2511 9.87728 16.1055 10.7758 14.509 10.7758C13.2354 10.7758 12.1934 10.354 11.2306 9.49221L11.7912 8.82598C12.626 9.58389 13.4304 9.96285 14.5455 9.96285C15.6241 9.96285 16.331 9.3883 16.331 8.59983V8.57538C16.331 7.8297 15.9288 7.40184 14.247 7.04734C12.4006 6.64394 11.5536 6.05105 11.5536 4.73082V4.70026C11.5536 3.43504 12.6626 2.50599 14.1921 2.50599C15.3621 2.50599 16.1969 2.83605 17.0135 3.49616L16.4894 4.19295C15.746 3.58174 14.9965 3.31891 14.1738 3.31891C13.1318 3.31891 12.4676 3.89346 12.4676 4.61469V4.64525C12.4676 5.40316 12.882 5.8249 14.643 6.20386C16.4224 6.59504 17.2511 7.24904 17.2511 8.47759ZM9.84124 10.6596H8.93329V2.62824H9.84124V10.6596ZM62.5452 11.5642H63.3983V12.4199H62.5452V11.5642ZM60.839 11.5642H61.6921V12.4199H60.839V11.5642ZM7.16613 31.3555H14.5943V35.0656H0.176716V31.6611L6.66036 26.3374C9.07954 24.3326 10.0301 23.2691 10.0301 21.6554C10.0301 20.0113 8.94548 19.1189 7.41597 19.1189C5.91084 19.1189 4.88101 19.9563 3.43682 21.7349L0.426555 19.3145C2.34606 16.6924 4.21071 15.2743 7.69019 15.2743C11.7242 15.2743 14.3993 17.6459 14.3993 21.2948V21.3498C14.3993 24.6076 12.7296 26.2273 9.27454 28.9045L5.01507 32.1928L4.18634 32.8346L7.16613 31.3555ZM71.5212 25.3655C71.5212 28.7089 69.1264 31.441 65.6774 31.441C62.2284 31.441 59.7787 28.6539 59.7787 25.3105V25.2555C59.7787 21.9122 62.1735 19.18 65.6225 19.18C69.0715 19.18 71.5273 21.9672 71.5273 25.3105V25.3655H71.5212ZM65.6774 15.2193C59.6629 15.2193 55.2938 19.7607 55.2938 25.3044V25.3594C55.2938 30.9032 59.6081 35.3895 65.6225 35.3895C71.6369 35.3895 76.0061 30.8482 76.0061 25.2983V25.2433C76 19.7057 71.6857 15.2193 65.6774 15.2193Z" fill="#ADA9AE"/>
<path d="M26.2446 13.9353L27.2317 14.8827L26.2811 15.8729L25.2939 14.9255L26.2446 13.9353Z" fill="#29367B"/>
<path d="M28.5068 14.9255L29.4879 15.8729L30.4385 14.8827L29.4514 13.9353L28.5068 14.9255Z" fill="#B1AEB3"/>
<path d="M27.1084 16.1664L27.8823 16.9059L28.6196 16.1358L27.8518 15.3962L27.1084 16.1664Z" fill="#D0DA33"/>
<path d="M29.9316 16.5885L30.6994 17.3281L31.4368 16.5579L30.669 15.8245L29.9316 16.5885Z" fill="#71BA44"/>
<path d="M25.8545 17.3468L26.6223 18.0864L27.3596 17.3162L26.5918 16.5767L25.8545 17.3468Z" fill="#D0DA33"/>
<path d="M28.4336 17.432L29.2014 18.1716L29.9387 17.4014L29.1709 16.668L28.4336 17.432Z" fill="#27B8BE"/>
<path d="M27.4248 18.3181L27.9671 18.8377L28.4851 18.2998L27.9428 17.7803L27.4248 18.3181Z" fill="#71BA44"/>
<path d="M29.4697 18.7276L30.006 19.2471L30.5239 18.7031L29.9877 18.1836L29.4697 18.7276Z" fill="#58B75E"/>
<path d="M35.5943 14.3025L33.916 14.6111L34.2225 16.2884L35.9008 15.9798L35.5943 14.3025Z" fill="#3088C8"/>
<path d="M33.075 15.0635L31.7324 15.3101L31.9783 16.6567L33.3208 16.4102L33.075 15.0635Z" fill="#1E3871"/>
<path d="M35.6746 16.9473L34.332 17.1943L34.5783 18.541L35.9209 18.294L35.6746 16.9473Z" fill="#27B8BE"/>
<path d="M33.5274 17.1974L32.4785 17.3901L32.6696 18.4362L33.7185 18.2435L33.5274 17.1974Z" fill="#D0DA33"/>
<path d="M35.5587 19.1847L34.5098 19.3774L34.7008 20.4235L35.7497 20.2308L35.5587 19.1847Z" fill="#B1AEB3"/>
<path d="M31.9503 17.619L30.9014 17.8118L31.0924 18.8578L32.1413 18.6651L31.9503 17.619Z" fill="#27B8BE"/>
<path d="M33.8565 18.9952L32.8076 19.188L32.9987 20.2341L34.0476 20.0413L33.8565 18.9952Z" fill="#71BA44"/>
<path d="M32.2128 19.1804L31.4756 19.3159L31.6107 20.0554L32.348 19.9198L32.2128 19.1804Z" fill="#B1AEB3"/>
<path d="M33.624 20.7032L32.8867 20.8384L33.0215 21.5779L33.7588 21.4427L33.624 20.7032Z" fill="#58B75E"/>
<path d="M38.9092 20.1094L38.1719 21.6496L39.7136 22.3831L40.4448 20.8428L38.9092 20.1094Z" fill="#29367B"/>
<path d="M36.7178 19.4006L36.1328 20.6353L37.3637 21.2221L37.9548 19.9874L36.7178 19.4006Z" fill="#27B8BE"/>
<path d="M37.7337 22.4436L37.1426 23.6783L38.3796 24.265L38.9646 23.0304L37.7337 22.4436Z" fill="#71BA44"/>
<path d="M36.1084 21.5156L35.6514 22.4813L36.6142 22.9398L37.0712 21.974L36.1084 21.5156Z" fill="#D0DA33"/>
<path d="M36.5967 24.3262L36.1396 25.2858L37.1024 25.7442L37.5595 24.7846L36.5967 24.3262Z" fill="#D0DA33"/>
<path d="M34.584 20.9395L34.127 21.9052L35.0898 22.3636L35.5468 21.3979L34.584 20.9395Z" fill="#3088C8"/>
<path d="M35.3301 23.1709L34.873 24.1305L35.8297 24.5889L36.2929 23.6293L35.3301 23.1709Z" fill="#B1AEB3"/>
<path d="M34.1736 22.4934L33.8506 23.1719L34.527 23.4897L34.8499 22.8112L34.1736 22.4934Z" fill="#71BA44"/>
<path d="M34.4295 24.5521L34.1074 25.231L34.7842 25.554L35.1063 24.8751L34.4295 24.5521Z" fill="#27B8BE"/>
<path d="M39.7363 27.4927L38.2373 28.3117L39.0599 29.8092L40.5529 28.984L39.7363 27.4927Z" fill="#3088C8"/>
<path d="M38.3762 25.6345L37.1758 26.2885L37.8339 27.4926L39.0343 26.8325L38.3762 25.6345Z" fill="#27B8BE"/>
<path d="M37.4192 28.6975L36.2188 29.3515L36.8769 30.5556L38.0773 29.8955L37.4192 28.6975Z" fill="#27B8BE"/>
<path d="M36.6501 26.9907L35.7178 27.5041L36.2296 28.4393L37.162 27.9259L36.6501 26.9907Z" fill="#29367B"/>
<path d="M35.4023 29.5591L34.4639 30.0725L34.9757 31.0077L35.9142 30.4942L35.4023 29.5591Z" fill="#58B75E"/>
<path d="M35.7519 25.6411L34.8135 26.1484L35.3253 27.0836L36.2638 26.5702L35.7519 25.6411Z" fill="#1E3871"/>
<path d="M35.0466 27.8774L34.1143 28.3909L34.6261 29.326L35.5585 28.8126L35.0466 27.8774Z" fill="#D0DA33"/>
<path d="M34.5026 26.6492L33.8506 27.0098L34.2101 27.6699L34.8682 27.3093L34.5026 26.6492Z" fill="#B1AEB3"/>
<path d="M33.4997 28.4766L32.8477 28.8372L33.2072 29.4912L33.8653 29.1306L33.4997 28.4766Z" fill="#27B8BE"/>
<path d="M34.402 33.7537L34.1934 35.446L35.8866 35.656L36.0952 33.9637L34.402 33.7537Z" fill="#71BA44"/>
<path d="M34.7245 31.4924L34.5566 32.8511L35.9112 33.0195L36.0791 31.6608L34.7245 31.4924Z" fill="#1E3871"/>
<path d="M32.1513 33.415L31.9834 34.7737L33.338 34.9421L33.5059 33.5834L32.1513 33.415Z" fill="#27B8BE"/>
<path d="M32.8196 31.6264L32.6895 32.6819L33.7477 32.8131L33.8778 31.7577L32.8196 31.6264Z" fill="#71BA44"/>
<path d="M30.3127 32.9712L30.1826 34.0266L31.2409 34.1579L31.371 33.1024L30.3127 32.9712Z" fill="#B1AEB3"/>
<path d="M32.8853 29.9944L32.7549 31.0498L33.8132 31.1814L33.9436 30.1259L32.8853 29.9944Z" fill="#B1AEB3"/>
<path d="M31.0123 31.404L30.8818 32.4595L31.9401 32.591L32.0705 31.5356L31.0123 31.404Z" fill="#71BA44"/>
<path d="M31.6008 30.1228L31.5088 30.8689L32.2526 30.9612L32.3447 30.2151L31.6008 30.1228Z" fill="#B1AEB3"/>
<path d="M29.7267 31.0176L29.6348 31.7637L30.3786 31.8559L30.4706 31.1098L29.7267 31.0176Z" fill="#B1AEB3"/>
<path d="M29.3562 37.0771L28.107 35.9158L26.9492 37.1688L28.1984 38.324L29.3562 37.0771Z" fill="#D0DA33"/>
<path d="M29.1257 13.1725L27.8765 12.0112L26.7188 13.2581L27.968 14.4194L29.1257 13.1725Z" fill="#71BA44"/>
<path d="M30.6954 35.1996L29.6899 34.2705L28.7637 35.2729L29.763 36.202L30.6954 35.1996Z" fill="#27B8BE"/>
<path d="M27.4893 35.2545L26.4839 34.3254L25.5576 35.3278L26.557 36.2569L27.4893 35.2545Z" fill="#71BA44"/>
<path d="M28.8516 33.9903L28.0716 33.2629L27.3525 34.0453L28.1325 34.7665L28.8516 33.9903Z" fill="#3088C8"/>
<path d="M26.0335 33.6102L25.2535 32.8828L24.5283 33.6652L25.3083 34.3925L26.0335 33.6102Z" fill="#D0DA33"/>
<path d="M29.8596 32.7068L29.0796 31.9795L28.3545 32.7618L29.1345 33.4892L29.8596 32.7068Z" fill="#D0DA33"/>
<path d="M27.511 32.7435L26.731 32.0161L26.0059 32.7985L26.7858 33.5258L27.511 32.7435Z" fill="#B1AEB3"/>
<path d="M28.5054 31.844L27.9569 31.3306L27.4512 31.8807L27.9996 32.3941L28.5054 31.844Z" fill="#1E3871"/>
<path d="M26.4665 31.4658L25.9181 30.9585L25.4062 31.5086L25.9547 32.0159L26.4665 31.4658Z" fill="#B1AEB3"/>
<path d="M21.7481 33.984L20.0752 34.3203L20.4093 35.9924L22.0822 35.6561L21.7481 33.984Z" fill="#3088C8"/>
<path d="M23.98 33.5751L22.6416 33.844L22.9097 35.1864L24.248 34.9175L23.98 33.5751Z" fill="#27B8BE"/>
<path d="M21.354 31.7419L20.0156 32.0112L20.2841 33.3537L21.6225 33.0844L21.354 31.7419Z" fill="#71BA44"/>
<path d="M23.2653 31.8095L22.2197 32.0195L22.428 33.0623L23.4736 32.8522L23.2653 31.8095Z" fill="#D0DA33"/>
<path d="M24.8356 31.3578L23.79 31.5679L23.9983 32.6107L25.0439 32.4006L24.8356 31.3578Z" fill="#29367B"/>
<path d="M22.9089 30.018L21.8633 30.228L22.0715 31.2708L23.1171 31.0607L22.9089 30.018Z" fill="#3088C8"/>
<path d="M24.3004 30.1787L23.5654 30.3262L23.7125 31.0634L24.4475 30.9159L24.3004 30.1787Z" fill="#71BA44"/>
<path d="M22.8619 28.679L22.127 28.8269L22.2744 29.564L23.0093 29.4162L22.8619 28.679Z" fill="#B1AEB3"/>
<path d="M17.0051 30.2434L17.7119 28.6909L16.158 27.9819L15.4512 29.5344L17.0051 30.2434Z" fill="#27B8BE"/>
<path d="M19.2004 30.9152L19.7671 29.6744L18.5179 29.106L17.9512 30.3528L19.2004 30.9152Z" fill="#D0DA33"/>
<path d="M18.1318 27.8898L18.6985 26.6429L17.4554 26.0745L16.8887 27.3213L18.1318 27.8898Z" fill="#3088C8"/>
<path d="M19.2358 27.3779L18.7959 28.3455L19.7661 28.7892L20.206 27.8217L19.2358 27.3779Z" fill="#27B8BE"/>
<path d="M21.0636 31.2151L21.5085 30.2433L20.5396 29.8032L20.0947 30.7751L21.0636 31.2151Z" fill="#B1AEB3"/>
<path d="M18.7077 24.5805L18.2676 25.5481L19.2378 25.9921L19.6779 25.0245L18.7077 24.5805Z" fill="#29367B"/>
<path d="M20.7731 27.9291L20.333 28.8967L21.3032 29.3407L21.7433 28.3731L20.7731 27.9291Z" fill="#58B75E"/>
<path d="M20.001 25.7148L19.5605 26.6821L20.5305 27.1265L20.971 26.1591L20.001 25.7148Z" fill="#D0DA33"/>
<path d="M21.6942 27.7802L22.005 27.1018L21.3225 26.79L21.0117 27.4685L21.6942 27.7802Z" fill="#1E3871"/>
<path d="M21.3981 25.7199L21.7089 25.0353L21.0325 24.7297L20.7217 25.4082L21.3981 25.7199Z" fill="#71BA44"/>
<path d="M16.054 22.8781L17.5348 22.0285L16.6878 20.5493L15.207 21.3928L16.054 22.8781Z" fill="#27B8BE"/>
<path d="M17.4332 24.7107L18.6215 24.0322L17.9451 22.8403L16.7568 23.5188L17.4332 24.7107Z" fill="#71BA44"/>
<path d="M18.3495 21.6379L19.5377 20.9595L18.8553 19.7676L17.667 20.446L18.3495 21.6379Z" fill="#1E3871"/>
<path d="M19.1473 23.3238L20.0675 22.7921L19.5434 21.8691L18.6172 22.3948L19.1473 23.3238Z" fill="#3088C8"/>
<path d="M20.3483 20.7391L21.2745 20.2074L20.7444 19.2844L19.8242 19.8101L20.3483 20.7391Z" fill="#71BA44"/>
<path d="M20.0643 24.662L20.9906 24.1363L20.4604 23.2073L19.5342 23.7329L20.0643 24.662Z" fill="#27B8BE"/>
<path d="M20.7311 22.4142L21.6573 21.8824L21.1272 20.9595L20.207 21.4851L20.7311 22.4142Z" fill="#D0DA33"/>
<path d="M21.2916 23.6304L21.9437 23.2575L21.5719 22.6096L20.9199 22.9825L21.2916 23.6304Z" fill="#B1AEB3"/>
<path d="M22.2614 21.7893L22.9134 21.4164L22.5417 20.7686L21.8896 21.1353L22.2614 21.7893Z" fill="#71BA44"/>
<path d="M19.7676 14.6521L19.5869 16.3477L21.2834 16.5296L21.4641 14.834L19.7676 14.6521Z" fill="#71BA44"/>
<path d="M19.779 17.2839L19.6338 18.6453L20.991 18.7909L21.1362 17.4296L19.779 17.2839Z" fill="#B1AEB3"/>
<path d="M22.3181 15.3215L22.1729 16.6829L23.53 16.8285L23.6753 15.4672L22.3181 15.3215Z" fill="#27B8BE"/>
<path d="M21.943 17.4616L21.8301 18.519L22.8904 18.633L23.0033 17.5755L21.943 17.4616Z" fill="#D0DA33"/>
<path d="M24.4367 16.0687L24.3242 17.1262L25.3846 17.2397L25.4971 16.1821L24.4367 16.0687Z" fill="#3088C8"/>
<path d="M21.9039 19.0885L21.791 20.146L22.8513 20.2599L22.9642 19.2025L21.9039 19.0885Z" fill="#27B8BE"/>
<path d="M23.7643 17.6559L23.6514 18.7134L24.7117 18.8273L24.8246 17.7698L23.7643 17.6559Z" fill="#71BA44"/>
<path d="M23.4743 19.2842L23.3945 20.0317L24.1398 20.1117L24.2195 19.3642L23.4743 19.2842Z" fill="#1E3871"/>
<path d="M25.3332 18.3559L25.2539 19.1035L25.9992 19.1831L26.0785 18.4355L25.3332 18.3559Z" fill="#B1AEB3"/>
<path d="M33.3006 26.2157C33.1726 26.1423 32.9411 26.0262 32.6242 25.9223C32.1672 25.7756 31.5212 25.6656 30.7656 25.7878C30.5097 25.8306 30.2416 25.8978 29.9613 25.9956C29.9369 26.0079 29.9064 26.014 29.882 26.0262C29.7419 26.0812 29.5956 26.1423 29.4555 26.2157C29.3336 26.2768 29.2117 26.344 29.0899 26.4174C28.8157 26.5824 28.5414 26.7719 28.2794 26.9736C27.9808 25.1522 28.1271 23.4652 28.1941 22.6339C28.1941 22.6278 28.2002 22.6278 28.2063 22.6278C28.8461 23.0312 28.6694 24.1681 28.5354 24.492C28.5354 24.4982 28.5414 24.5043 28.5475 24.4982C29.3458 23.5508 28.9558 22.5056 28.7913 22.2367C28.7852 22.2305 28.7974 22.2244 28.8035 22.2305C28.9193 22.3222 29.0107 22.4261 29.096 22.5239C29.3458 22.8418 29.4372 23.184 29.4616 23.4835C29.4738 23.6425 29.4677 23.7891 29.4616 23.9175C29.4616 23.9542 29.4555 23.9847 29.4555 24.0153C29.4555 24.0214 29.4616 24.0214 29.4616 24.0214H29.4677C29.681 23.5936 29.7845 22.9518 29.4616 22.3283C29.3763 22.1572 29.2544 21.9922 29.096 21.8271C29.0533 21.7782 29.0046 21.7355 28.9497 21.6866C28.9436 21.6804 28.9497 21.6743 28.9558 21.6743C29.0046 21.6866 29.0533 21.6988 29.096 21.7171C29.23 21.766 29.3519 21.8332 29.4616 21.9066C29.7053 22.0838 29.8699 22.3344 29.9674 22.5912C30.0466 22.8051 30.0892 23.0251 30.0831 23.2146C30.0831 23.2207 30.0953 23.2207 30.0953 23.2146C30.2477 22.6584 30.1563 22.2428 29.9674 21.9372C29.8333 21.7171 29.6444 21.5582 29.4616 21.4482C29.3336 21.3748 29.2117 21.3198 29.096 21.2832C29.0289 21.2648 28.9741 21.2526 28.9192 21.2465C28.9132 21.2465 28.9132 21.2343 28.9192 21.2343C28.9802 21.2281 29.035 21.2281 29.0899 21.222C29.2239 21.222 29.3458 21.2343 29.4555 21.2526C29.6688 21.2954 29.8333 21.3687 29.9613 21.4543C30.1624 21.5949 30.2659 21.7538 30.3025 21.821C30.3086 21.8271 30.3147 21.821 30.3147 21.8149C30.2842 21.5215 30.1502 21.2954 29.9613 21.1303C29.815 21.002 29.6383 20.9164 29.4555 20.8614C29.3336 20.8309 29.2117 20.8125 29.0899 20.8064C28.9253 20.8064 28.773 20.8308 28.6389 20.8859C28.6328 20.8859 28.6268 20.8797 28.6328 20.8736C28.7486 20.7025 28.9193 20.5986 29.096 20.5497C29.2178 20.513 29.3458 20.5008 29.4616 20.5069C29.5713 20.513 29.6749 20.5375 29.7602 20.5803C29.7663 20.5803 29.7724 20.5741 29.7663 20.568C29.6749 20.4641 29.5713 20.3786 29.4616 20.3174C29.3458 20.2502 29.2239 20.2135 29.096 20.2013C28.773 20.1646 28.4439 20.3052 28.2185 20.6353C28.2185 20.6414 28.2124 20.6414 28.2063 20.6353C28.1636 20.5619 28.121 20.4763 28.0844 20.3908C27.9991 20.1891 27.926 19.9568 27.8894 19.7307C27.8894 19.7245 27.8772 19.7245 27.8772 19.7307C27.8407 19.9568 27.7675 20.1891 27.6761 20.3969C27.6396 20.4825 27.5969 20.568 27.5543 20.6414C27.5543 20.6475 27.5482 20.6475 27.5421 20.6414C27.1582 20.0607 26.4391 20.0668 26.0004 20.5741C25.9943 20.5803 26.0004 20.5864 26.0065 20.5864C26.299 20.4458 26.8535 20.4886 27.1277 20.8859C27.1338 20.892 27.1277 20.8981 27.1216 20.8981C26.6951 20.7208 26.0309 20.837 25.6835 21.2587C25.5556 21.4115 25.4702 21.5949 25.4459 21.8271C25.4459 21.8332 25.452 21.8394 25.4581 21.8332C25.4885 21.7844 25.5556 21.6682 25.6835 21.5582C25.8907 21.3748 26.2502 21.1915 26.8413 21.2465C26.8474 21.2465 26.8474 21.2587 26.8413 21.2587C26.5366 21.2954 25.909 21.5704 25.6835 22.1878C25.5799 22.4628 25.5556 22.8051 25.6713 23.2268C25.6713 23.2329 25.6835 23.2329 25.6835 23.2268C25.6835 23.2146 25.6835 23.2085 25.6835 23.1963C25.6896 22.6339 26.0126 21.876 26.8108 21.6804C26.8169 21.6804 26.823 21.6866 26.8169 21.6927C25.9273 22.4811 26.0126 23.453 26.3051 24.0214C26.3112 24.0275 26.3173 24.0275 26.3173 24.0153C26.2807 23.5813 26.2441 22.8112 26.9632 22.2244C26.9693 22.2183 26.9754 22.2244 26.9754 22.2305C26.8108 22.4934 26.4209 23.5447 27.2191 24.492C27.2252 24.4982 27.2313 24.492 27.2313 24.4859C27.0972 24.162 26.9144 23.0312 27.5604 22.6217C27.5665 22.6217 27.5726 22.6217 27.5726 22.6278C27.6457 23.4591 27.7858 25.146 27.4872 26.9675C26.9693 26.5702 26.4269 26.2218 25.8846 26.0201C25.8176 25.9956 25.7506 25.9712 25.6896 25.9529C25.1351 25.7695 24.6232 25.7206 24.1784 25.7389C23.4654 25.7695 22.917 25.9834 22.6184 26.1362C22.5575 26.1668 22.5087 26.1973 22.4661 26.2157C22.4478 26.2279 22.46 26.2462 22.4783 26.2401C22.527 26.2279 22.5697 26.2096 22.6184 26.1973C23.1668 26.0445 23.6848 26.0018 24.1784 26.0445C24.7146 26.0934 25.2204 26.2401 25.6896 26.4541C26.3477 26.7535 26.951 27.1753 27.4872 27.6276C26.7255 28.2938 26.0796 28.9417 25.6896 29.1679C25.6713 29.1801 25.6531 29.1923 25.6348 29.1984C25.5434 29.0701 25.3788 28.9967 25.2021 29.0334C25.0498 29.0701 24.9218 29.1923 24.8853 29.3451C24.8548 29.4857 24.8913 29.6324 24.9645 29.7118C25.1717 29.9197 25.4154 29.9319 25.6896 29.8158C26.2198 29.5957 26.8718 28.8928 27.6822 28.1532C27.7493 28.0921 27.8163 28.031 27.8894 27.9699C27.9565 28.031 28.0296 28.0921 28.0905 28.1532C28.4561 28.4894 28.7913 28.8134 29.096 29.0945C29.2239 29.2106 29.3458 29.3146 29.4616 29.4123C29.6444 29.559 29.8089 29.6813 29.9674 29.7669C30.2781 29.9319 30.5402 29.9502 30.7717 29.7485C30.7839 29.7363 30.7961 29.7302 30.8083 29.718C30.8631 29.6629 30.9241 29.4918 30.8875 29.3512C30.8692 29.2718 30.8266 29.1984 30.7656 29.1434C30.7108 29.0945 30.6438 29.0517 30.5706 29.0395C30.3939 29.0028 30.2294 29.0762 30.138 29.2045C30.0831 29.1801 30.0283 29.1434 29.9613 29.1006C29.815 29.0028 29.6444 28.8623 29.4555 28.6911C29.3397 28.5933 29.2178 28.4833 29.0899 28.3672C28.84 28.141 28.5658 27.8904 28.2794 27.6337C28.5354 27.4198 28.8096 27.212 29.0899 27.0164C29.2057 26.9369 29.3275 26.8575 29.4555 26.7841C29.62 26.6863 29.7906 26.5946 29.9613 26.5091C30.2172 26.3868 30.4853 26.2829 30.7656 26.1973C31.3445 26.0323 31.96 25.9773 32.6242 26.0812C32.8375 26.1179 33.0629 26.1668 33.2884 26.2401C33.3067 26.2462 33.3189 26.2279 33.3006 26.2157Z" fill="#727A82"/>
<path d="M27.2996 44.2216H27.787V39.8269H27.2996V44.2216ZM14.4785 43.7326L13.7168 41.8562C13.9057 41.6972 14.0946 41.5811 14.2957 41.5078C14.4907 41.4344 14.6979 41.3977 14.9173 41.3977C15.1366 41.3977 15.356 41.4405 15.5693 41.5322C15.7826 41.6178 15.9715 41.7278 16.1177 41.8623L15.356 43.7387H14.4785V43.7326ZM11.7851 43.7326H11.2915C11.1087 43.7326 10.9381 43.7081 10.7736 43.6592C10.6151 43.6103 10.4689 43.5309 10.347 43.4331C10.2251 43.3353 10.1276 43.2131 10.0606 43.0725C9.99359 42.9319 9.95702 42.7669 9.95702 42.5835C9.95702 42.4062 9.99359 42.2473 10.0728 42.1006C10.1459 41.9539 10.2495 41.8256 10.3714 41.7217C10.4933 41.6178 10.6395 41.5383 10.7979 41.4772C10.9564 41.4222 11.1209 41.3916 11.2915 41.3916H11.7851V43.7326ZM25.3801 43.7326H24.5818C24.2954 43.7326 24.0699 43.6898 23.9115 43.6103C23.747 43.5309 23.619 43.4086 23.5276 43.2436C23.5581 43.1153 23.5702 42.9625 23.5702 42.7852V41.2083H23.0827V42.8647C23.0827 43.1458 23.0096 43.372 22.8573 43.5431C22.7049 43.7143 22.4795 43.7998 22.1748 43.7998C22.0346 43.7998 21.9006 43.7754 21.7848 43.7326C21.669 43.6898 21.5654 43.6287 21.4801 43.5492C21.3948 43.4698 21.3278 43.3781 21.279 43.2742C21.2303 43.1703 21.2059 43.0603 21.1998 42.938V41.2083H20.7123V42.9013C20.7123 43.0541 20.6879 43.1825 20.6453 43.2864C20.6026 43.3903 20.5417 43.4759 20.4625 43.5431C20.3833 43.6103 20.2979 43.6592 20.2005 43.6898C20.103 43.7204 19.9994 43.7326 19.8897 43.7326H18.9391V41.2022H18.4516V43.7326H15.8861L16.7393 41.685C16.6113 41.5689 16.4711 41.465 16.3249 41.3611C16.1786 41.2633 16.0263 41.1716 15.874 41.0982C15.7216 41.0249 15.5632 40.9638 15.4047 40.921C15.2463 40.8782 15.0879 40.8599 14.9355 40.8599C14.7771 40.8599 14.6187 40.8843 14.4602 40.921C14.3018 40.9638 14.1434 41.0249 13.9849 41.0982C13.8265 41.1716 13.6802 41.2572 13.534 41.3611C13.3877 41.465 13.2537 41.5689 13.1257 41.685L13.9849 43.7326H12.2909V40.8965H11.5109C11.2062 40.8965 10.932 40.9393 10.6822 41.0249C10.4323 41.1105 10.2191 41.2266 10.0423 41.3794C9.86562 41.5261 9.72546 41.7033 9.62797 41.9112C9.53047 42.119 9.48172 42.339 9.48172 42.5835C9.48172 42.8708 9.53656 43.1214 9.64625 43.3292C9.75593 43.537 9.90218 43.702 10.085 43.8365C10.2678 43.971 10.4872 44.0688 10.7309 44.1299C10.9747 44.191 11.2367 44.2277 11.5048 44.2277H11.7973V44.3683C11.7973 44.625 11.7242 44.8083 11.5779 44.9184C11.4317 45.0284 11.2245 45.0834 10.9625 45.0834C10.8101 45.0834 10.6761 45.0712 10.5542 45.0406C10.4323 45.01 10.2983 44.9611 10.1398 44.8939L9.98749 45.3645C10.1764 45.4318 10.3409 45.4868 10.4872 45.5235C10.6334 45.5601 10.7797 45.5785 10.9259 45.5785C11.4012 45.5785 11.7486 45.4623 11.9679 45.2362C12.1812 45.01 12.2909 44.7044 12.2909 44.3194V44.2277H19.8897C20.1273 44.2277 20.3345 44.1788 20.5234 44.0749C20.7062 43.971 20.8586 43.8365 20.9743 43.6654C21.0901 43.8609 21.2547 44.0138 21.4557 44.1238C21.6629 44.2338 21.9006 44.2888 22.1809 44.2888C22.4734 44.2888 22.7232 44.2399 22.9304 44.136C23.1376 44.0321 23.296 43.8793 23.4057 43.6654C23.4484 43.7326 23.4971 43.8059 23.5581 43.8732C23.619 43.9404 23.6921 44.0015 23.7896 44.0565C23.881 44.1115 23.9968 44.1543 24.1309 44.1849C24.2344 44.2093 24.3502 44.2216 24.4843 44.2277V44.2338H25.898V39.8391H25.4105V43.7326H25.3801ZM69.2726 43.5187C69.2056 43.6776 69.1142 43.8121 68.9984 43.9282C68.8826 44.0443 68.7486 44.1299 68.5901 44.1971C68.4317 44.2582 68.2611 44.2949 68.0783 44.2949C67.9015 44.2949 67.7309 44.2582 67.5786 44.191C67.4262 44.1238 67.2922 44.0321 67.1825 43.916C67.0728 43.7998 66.9814 43.6654 66.9205 43.5064C66.8595 43.3536 66.823 43.1886 66.823 43.0114C66.823 42.8341 66.8534 42.6691 66.9205 42.5102C66.9814 42.3512 67.0728 42.2168 67.1825 42.1006C67.2922 41.9845 67.4262 41.8928 67.5786 41.8195C67.7309 41.7522 67.9015 41.7156 68.0844 41.7156C68.2733 41.7156 68.4439 41.7461 68.6023 41.8134C68.7607 41.8806 68.8948 41.9662 69.0106 42.0823C69.1264 42.1984 69.2178 42.3329 69.2848 42.4918C69.3518 42.6507 69.3823 42.8219 69.3823 43.0114C69.3762 43.1886 69.3396 43.3597 69.2726 43.5187ZM64.5318 43.5187C64.4647 43.6776 64.3733 43.8121 64.2575 43.9282C64.1418 44.0443 64.0077 44.1299 63.8493 44.1971C63.6908 44.2582 63.5202 44.2949 63.3374 44.2949C63.1607 44.2949 62.9901 44.2582 62.8377 44.191C62.6854 44.1238 62.5513 44.0321 62.4416 43.916C62.3319 43.7998 62.2405 43.6654 62.1796 43.5064C62.1187 43.3536 62.0821 43.1886 62.0821 43.0114C62.0821 42.8341 62.1126 42.6691 62.1796 42.5102C62.2405 42.3512 62.3319 42.2168 62.4416 42.1006C62.5513 41.9845 62.6854 41.8928 62.8377 41.8195C62.9901 41.7522 63.1607 41.7156 63.3435 41.7156C63.5324 41.7156 63.703 41.7461 63.8615 41.8134C64.0199 41.8806 64.1539 41.9662 64.2697 42.0823C64.3855 42.1984 64.4769 42.3329 64.5439 42.4918C64.611 42.6507 64.6414 42.8219 64.6414 43.0114C64.6292 43.1886 64.5988 43.3597 64.5318 43.5187ZM52.6309 43.7326H52.1495C51.9666 43.7326 51.796 43.7081 51.6315 43.6531C51.4731 43.5981 51.3329 43.5248 51.211 43.4209C51.0892 43.3231 50.9978 43.2008 50.9246 43.0541C50.8576 42.9074 50.821 42.7424 50.821 42.5591C50.821 42.3818 50.8576 42.2229 50.9368 42.0762C51.0099 41.9295 51.1135 41.8073 51.2354 41.7034C51.3573 41.5994 51.5035 41.52 51.662 41.465C51.8204 41.41 51.9849 41.3794 52.1495 41.3794H52.6309V43.7326ZM71.3932 43.7326H69.7114C69.8149 43.5064 69.8637 43.2681 69.8637 43.0114C69.8637 42.7608 69.8149 42.5224 69.7235 42.3023C69.6321 42.0823 69.5042 41.8928 69.3457 41.7339C69.1873 41.575 68.9984 41.4466 68.779 41.355C68.5597 41.2633 68.3281 41.2144 68.0722 41.2144C67.8284 41.2144 67.5969 41.2633 67.3897 41.355C67.1764 41.4466 66.9936 41.575 66.8352 41.74C66.6767 41.8989 66.5548 42.0884 66.4634 42.3085C66.372 42.5224 66.3294 42.7546 66.3294 43.0052C66.3294 43.1336 66.3416 43.262 66.372 43.3842C66.3964 43.5064 66.433 43.6226 66.4817 43.7326H64.9644C65.068 43.5064 65.1167 43.2681 65.1167 43.0114C65.1167 42.7608 65.0741 42.5224 64.9766 42.3023C64.8852 42.0823 64.7572 41.8928 64.5988 41.7339C64.4403 41.575 64.2514 41.4466 64.0321 41.355C63.8127 41.2633 63.5811 41.2144 63.3252 41.2144C63.0815 41.2144 62.8499 41.2633 62.6427 41.355C62.4294 41.4466 62.2466 41.575 62.0882 41.74C61.9298 41.8989 61.8079 42.0884 61.7165 42.3085C61.6251 42.5224 61.5824 42.7546 61.5824 43.0052C61.5824 43.1336 61.5946 43.262 61.6251 43.3842C61.6495 43.5064 61.686 43.6226 61.7348 43.7326H60.1809V39.8269H59.6934V43.7326H58.1334V42.9808C58.1334 42.7913 58.109 42.6141 58.0603 42.4429C58.0115 42.2718 57.9323 42.1312 57.8287 42.009C57.7008 41.8684 57.5606 41.7584 57.4022 41.6911C57.2437 41.6239 57.0427 41.5872 56.7989 41.5872H54.6357L55.5558 39.8208H55.0257L54.0872 41.5811C54.1055 41.685 54.1299 41.7767 54.1665 41.8562C54.203 41.9356 54.2518 42.009 54.3127 42.0762H56.805C56.9573 42.0762 57.0914 42.1006 57.2072 42.1495C57.3169 42.1984 57.4083 42.2596 57.4814 42.339C57.5484 42.4185 57.5972 42.5163 57.6216 42.6202C57.6459 42.7241 57.6581 42.8463 57.6581 42.9747V43.7265H53.1305V40.8904H52.3627C52.0581 40.8904 51.7777 40.9332 51.534 41.0127C51.2842 41.0982 51.0709 41.2144 50.9003 41.3611C50.7235 41.5078 50.5895 41.685 50.492 41.8928C50.3945 42.0945 50.3457 42.3146 50.3457 42.5529C50.3457 42.8402 50.4006 43.0908 50.5103 43.2986C50.6199 43.5064 50.7662 43.6776 50.949 43.8121C51.1318 43.9465 51.3451 44.0443 51.5888 44.1115C51.8326 44.1788 52.0885 44.2093 52.3566 44.2093H62.0577C62.2162 44.3805 62.4051 44.515 62.6244 44.6189C62.8438 44.7167 63.0815 44.7717 63.3374 44.7717C63.5994 44.7717 63.8432 44.7228 64.0686 44.625C64.2941 44.5272 64.4891 44.3927 64.6536 44.2155H66.8047C66.9631 44.3866 67.152 44.5211 67.3714 44.625C67.5908 44.7228 67.8284 44.7778 68.0844 44.7778C68.3464 44.7778 68.5901 44.7289 68.8156 44.6311C69.0411 44.5333 69.236 44.3988 69.4006 44.2216H71.8868V39.8269H71.3993V43.7326H71.3932ZM73.3066 44.2216H73.7941V39.8269H73.3066V44.2216ZM37.2627 45.3034H37.7623V44.8022H37.2627V45.3034ZM42.0462 43.7326L41.2845 41.8562C41.4734 41.6972 41.6623 41.5811 41.8634 41.5078C42.0584 41.4344 42.2656 41.3977 42.4849 41.3977C42.7043 41.3977 42.9237 41.4405 43.1369 41.5322C43.3502 41.6178 43.5391 41.7278 43.6854 41.8623L42.9237 43.7387H42.0462V43.7326ZM45.5135 43.7326H43.4355L44.2886 41.685C44.1607 41.5689 44.0205 41.465 43.8743 41.3611C43.728 41.2633 43.5757 41.1716 43.4234 41.0982C43.271 41.0249 43.1126 40.9638 42.9541 40.921C42.7957 40.8782 42.6373 40.8599 42.4849 40.8599C42.3265 40.8599 42.1681 40.8843 42.0096 40.921C41.8512 40.9638 41.6928 41.0249 41.5343 41.0982C41.3759 41.1716 41.2235 41.2572 41.0834 41.3611C40.9371 41.465 40.8031 41.5689 40.6751 41.685L41.5343 43.7326H39.7123V40.8965H39.2248V44.3255C39.2248 44.4661 39.2187 44.5822 39.2065 44.68C39.1944 44.7778 39.17 44.8511 39.1334 44.9122C39.0969 44.9734 39.0542 45.0162 38.9933 45.0406C38.9323 45.065 38.8592 45.0834 38.7617 45.0834C38.7191 45.0834 38.6764 45.0834 38.6459 45.0773C38.6155 45.0712 38.5667 45.065 38.5119 45.0467L38.3839 45.5173C38.518 45.554 38.652 45.5724 38.78 45.5724C38.9567 45.5724 39.103 45.5418 39.2248 45.4868C39.3467 45.4318 39.4442 45.3462 39.5173 45.2362C39.5904 45.1262 39.6453 44.9978 39.6758 44.845C39.7062 44.6922 39.7245 44.5211 39.7245 44.3255V44.2216H46.0192V39.8269H45.5318V43.7326H45.5135ZM8.37877 41.3305C8.2508 41.1899 8.10455 41.0799 7.94003 41.0066C7.78159 40.9332 7.5805 40.9027 7.34894 40.9027H6.98942V41.3916H7.41597C7.53175 41.3916 7.64753 41.4161 7.75112 41.4711C7.85471 41.52 7.94612 41.5872 8.01315 41.6728C8.08018 41.7584 8.12893 41.85 8.1594 41.9539C8.18377 42.0579 8.20205 42.1801 8.20205 42.3207V43.7387H5.90475V44.2277H8.68954V42.2962C8.68954 42.1068 8.66517 41.9234 8.61033 41.7584C8.56158 41.5872 8.48236 41.4466 8.37877 41.3305ZM35.4772 45.3095H35.9769V44.8022H35.4772V45.3095ZM32.5035 43.7326H32.0221C31.8393 43.7326 31.6687 43.7081 31.5042 43.6531C31.3457 43.5981 31.2056 43.5248 31.0837 43.4209C30.9618 43.3231 30.8704 43.2008 30.7973 43.0541C30.7303 42.9074 30.6937 42.7424 30.6937 42.5591C30.6937 42.3818 30.7303 42.2229 30.8095 42.0762C30.8826 41.9295 30.9862 41.8073 31.1081 41.7034C31.23 41.5994 31.3762 41.52 31.5346 41.465C31.6931 41.41 31.8576 41.3794 32.0221 41.3794H32.5035V43.7326ZM37.7623 40.9027H37.2749V43.7387H35.4285V40.9027H34.941V43.7387H32.9971V40.9027H32.2293C31.9246 40.9027 31.6443 40.9454 31.3945 41.0249C31.1446 41.1105 30.9314 41.2266 30.7607 41.3733C30.584 41.52 30.45 41.6972 30.3525 41.9051C30.255 42.1068 30.2062 42.3268 30.2062 42.5652C30.2062 42.8524 30.2611 43.103 30.3708 43.3109C30.4804 43.5187 30.6267 43.6898 30.8095 43.8243C30.9923 43.9587 31.2056 44.0565 31.4493 44.1238C31.6931 44.191 31.949 44.2216 32.2171 44.2216H37.7563V40.9027H37.7623ZM34.618 45.3095H35.1177V44.8022H34.618V45.3095ZM1.93169 39.833H1.42591V40.3342H1.92559V39.833H1.93169ZM52.2652 39.833H51.7656V40.3342H52.2652V39.833ZM32.991 39.833H32.4913V40.3342H32.991V39.833ZM4.81398 45.3095H5.31366V44.8022H4.81398V45.3095ZM32.1318 39.833H31.6321V40.3342H32.1318V39.833ZM2.7848 39.833H2.28512V40.3342H2.7848V39.833ZM3.96087 45.3095H4.46055V44.8022H3.96087V45.3095ZM2.29731 43.7326H1.81591C1.6331 43.7326 1.46248 43.7081 1.29795 43.6531C1.13951 43.5981 0.993265 43.5248 0.877486 43.4209C0.755613 43.3231 0.664208 43.2008 0.591084 43.0541C0.524054 42.9074 0.487492 42.7424 0.487492 42.5591C0.487492 42.3818 0.524054 42.2229 0.603271 42.0762C0.676395 41.9295 0.779987 41.8073 0.90186 41.7034C1.02373 41.5994 1.16998 41.52 1.32842 41.465C1.48685 41.41 1.65138 41.3794 1.81591 41.3794H2.29731V43.7326ZM5.22226 40.9027H4.73477V43.7387H2.79089V40.9027H2.017C1.71232 40.9027 1.43201 40.9454 1.18826 41.0249C0.938422 41.1105 0.725144 41.2266 0.554522 41.3733C0.377806 41.52 0.243746 41.6972 0.146248 41.9051C0.0487492 42.1068 0 42.3268 0 42.5652C0 42.8524 0.0548429 43.103 0.164529 43.3109C0.274214 43.5187 0.420462 43.6898 0.603271 43.8243C0.786081 43.9587 0.999359 44.0565 1.2431 44.1238C1.48685 44.191 1.74278 44.2216 2.0109 44.2216H5.21616V40.9027H5.22226ZM47.4269 44.2216H47.9144V39.8269H47.4269V44.2216ZM53.1183 39.833H52.6187V40.3342H53.1183V39.833Z" fill="#ADA9AE"/>
<path d="M0.481445 47.4424H1.09081V49.2027L2.75438 47.4424H3.50999L2.05361 48.946L3.57093 50.9385H2.8275L1.63924 49.3677L1.09081 49.9239V50.9385H0.481445V47.4424Z" fill="#ADA9AE"/>
<path d="M4.74534 47.4424H4.12988V50.9385H4.74534V47.4424Z" fill="#ADA9AE"/>
<path d="M5.69336 47.4424H6.26616L8.13691 49.8628V47.4424H8.74018V50.9385H8.22832L6.29663 48.4509V50.9385H5.69336V47.4424Z" fill="#ADA9AE"/>
<path d="M9.5 49.2023V49.1901C9.5 48.2121 10.2495 47.3809 11.3037 47.3809C11.9131 47.3809 12.2848 47.552 12.6443 47.8576L12.2543 48.3221C11.9862 48.0899 11.7181 47.9493 11.2733 47.9493C10.6273 47.9493 10.1398 48.5116 10.1398 49.184V49.1962C10.1398 49.9174 10.6151 50.4431 11.3281 50.4431C11.6572 50.4431 11.9557 50.3392 12.169 50.1802V49.5262H11.2733V48.9945H12.7601V50.4614C12.4128 50.7548 11.9192 51.0054 11.3037 51.0054C10.2191 50.9993 9.5 50.2169 9.5 49.2023Z" fill="#ADA9AE"/>
<path d="M14.9144 50.3823C15.6456 50.3823 16.127 49.8873 16.127 49.2027V49.1905C16.127 48.5059 15.6456 47.9986 14.9144 47.9986H14.2258V50.3762H14.9144V50.3823ZM13.6104 47.4424H14.9144C16.0112 47.4424 16.773 48.1942 16.773 49.1782V49.1905C16.773 50.1745 16.0112 50.9385 14.9144 50.9385H13.6104V47.4424Z" fill="#ADA9AE"/>
<path d="M20.3608 49.2023V49.1901C20.3608 48.5116 19.8673 47.9432 19.1726 47.9432C18.4779 47.9432 17.9965 48.4994 17.9965 49.1778V49.1901C17.9965 49.8685 18.4901 50.4369 19.1848 50.4369C19.8795 50.4369 20.3608 49.8807 20.3608 49.2023ZM17.3506 49.2023V49.1901C17.3506 48.206 18.1123 47.3809 19.1848 47.3809C20.2573 47.3809 21.0068 48.1938 21.0068 49.1778V49.1901C21.0068 50.1741 20.2512 50.9993 19.1726 50.9993C18.1001 50.9993 17.3506 50.1864 17.3506 49.2023Z" fill="#ADA9AE"/>
<path d="M21.7646 47.4424H22.4167L23.4831 49.0927L24.5434 47.4424H25.2015V50.9385H24.586V48.4326L23.4831 50.0828H23.4648L22.3679 48.4387V50.9385H21.7646V47.4424Z" fill="#ADA9AE"/>
<path d="M30.4546 49.2023V49.1901C30.4546 48.5116 29.961 47.9432 29.2663 47.9432C28.5717 47.9432 28.0903 48.4994 28.0903 49.1778V49.1901C28.0903 49.8685 28.5838 50.4369 29.2785 50.4369C29.9671 50.4369 30.4546 49.8807 30.4546 49.2023ZM27.4443 49.2023V49.1901C27.4443 48.206 28.206 47.3809 29.2785 47.3809C30.351 47.3809 31.1005 48.1938 31.1005 49.1778V49.1901C31.1005 50.1741 30.3388 50.9993 29.2663 50.9993C28.1939 50.9993 27.4443 50.1864 27.4443 49.2023Z" fill="#ADA9AE"/>
<path d="M31.8584 47.4424H34.4604V47.9986H32.4739V48.9582H34.2349V49.5144H32.4739V50.9385H31.8584V47.4424Z" fill="#ADA9AE"/>
<path d="M36.3965 50.4318L36.7682 49.9917C37.1033 50.279 37.4385 50.444 37.8711 50.444C38.249 50.444 38.4927 50.2668 38.4927 50.0039V49.9978C38.4927 49.7472 38.3525 49.6128 37.7066 49.46C36.9632 49.2827 36.5427 49.0627 36.5427 48.4148V48.4087C36.5427 47.8097 37.0424 47.394 37.7371 47.394C38.249 47.394 38.6511 47.5468 39.0046 47.8341L38.6755 48.2986C38.3586 48.0664 38.0479 47.938 37.7249 47.938C37.3654 47.938 37.1582 48.1214 37.1582 48.3537V48.3659C37.1582 48.6348 37.3166 48.7571 37.9869 48.916C38.7243 49.0932 39.1082 49.3622 39.1082 49.9428V49.955C39.1082 50.609 38.5963 51.0002 37.859 51.0002C37.3227 50.988 36.8169 50.8046 36.3965 50.4318Z" fill="#ADA9AE"/>
<path d="M41.8643 49.5521L41.261 48.1524L40.6638 49.5521H41.8643ZM40.9868 47.4189H41.5535L43.0891 50.9396H42.4432L42.0897 50.0961H40.4383L40.0788 50.9396H39.4512L40.9868 47.4189Z" fill="#ADA9AE"/>
<path d="M43.4561 49.4533V47.4424H44.0715V49.4288C44.0715 50.0767 44.4067 50.4251 44.9551 50.4251C45.4974 50.4251 45.8326 50.0951 45.8326 49.4533V47.4424H46.448V49.4288C46.448 50.474 45.857 50.9997 44.9429 50.9997C44.035 50.9936 43.4561 50.4679 43.4561 49.4533Z" fill="#ADA9AE"/>
<path d="M48.6458 50.3823C49.3771 50.3823 49.8585 49.8873 49.8585 49.2027V49.1905C49.8585 48.5059 49.3771 47.9986 48.6458 47.9986H47.9573V50.3762H48.6458V50.3823ZM47.3418 47.4424H48.6458C49.7427 47.4424 50.5044 48.1942 50.5044 49.1782V49.1905C50.5044 50.1745 49.7427 50.9385 48.6458 50.9385H47.3418V47.4424Z" fill="#ADA9AE"/>
<path d="M51.8957 47.4424H51.2803V50.9385H51.8957V47.4424Z" fill="#ADA9AE"/>
<path d="M56.4375 49.5521L55.8342 48.1524L55.237 49.5521H56.4375ZM55.56 47.4189H56.1267L57.6623 50.9396H57.0164L56.663 50.0961H55.0116L54.6521 50.9396H54.0244L55.56 47.4189Z" fill="#ADA9AE"/>
<path d="M59.7583 49.1782C60.197 49.1782 60.4773 48.946 60.4773 48.5915V48.5792C60.4773 48.2064 60.2092 47.9986 59.7522 47.9986H58.8625V49.1721H59.7583V49.1782ZM58.2471 47.4424H59.807C60.2458 47.4424 60.5931 47.5707 60.8186 47.7908C61.0014 47.9803 61.1111 48.2431 61.1111 48.5426V48.5548C61.1111 49.1293 60.7637 49.4716 60.2763 49.6122L61.2208 50.9385H60.4956L59.6364 49.7161H59.6242H58.8625V50.9385H58.2471V47.4424Z" fill="#ADA9AE"/>
<path d="M64.084 49.5521L63.4807 48.1524L62.8835 49.5521H64.084ZM63.2065 47.4189H63.7732L65.3088 50.9396H64.6629L64.3094 50.0961H62.6581L62.2985 50.9396H61.6709L63.2065 47.4189Z" fill="#ADA9AE"/>
<path d="M67.5135 50.3946C67.934 50.3946 68.1899 50.2295 68.1899 49.9117V49.8995C68.1899 49.6061 67.9583 49.4288 67.4708 49.4288H66.4959V50.3885H67.5135V50.3946ZM67.3307 48.9154C67.7268 48.9154 67.9888 48.7626 67.9888 48.4387V48.4264C67.9888 48.1514 67.7694 47.9803 67.3733 47.9803H66.4898V48.9093H67.3307V48.9154ZM65.8926 47.4424H67.4586C67.8547 47.4424 68.1716 47.5524 68.3727 47.7541C68.525 47.9069 68.6043 48.0964 68.6043 48.3348V48.347C68.6043 48.7687 68.3666 48.9888 68.1046 49.1293C68.5129 49.2699 68.7993 49.5022 68.7993 49.9789V49.9912C68.7993 50.6146 68.2874 50.9508 67.5074 50.9508H65.8926V47.4424Z" fill="#ADA9AE"/>
<path d="M70.177 47.4424H69.5615V50.9385H70.177V47.4424Z" fill="#ADA9AE"/>
<path d="M73.1748 49.5521L72.5715 48.1524L71.9744 49.5521H73.1748ZM72.2973 47.4189H72.864L74.3996 50.9396H73.7537L73.4003 50.0961H71.7489L71.3894 50.9396H70.7617L72.2973 47.4189Z" fill="#ADA9AE"/>
</g>
<defs>
<clipPath id="clip0_315_6536">
<rect width="76" height="51" fill="white"/>
</clipPath>
</defs>
</svg>
