<svg width="27" height="27" viewBox="0 0 27 27" fill="none" xmlns="http://www.w3.org/2000/svg">
<path d="M15.2719 5.58945C15.2719 5.58945 15.3632 10.5693 20.4116 11.1403C20.4116 11.1403 24.4776 11.3688 25.1629 12.3282C25.1629 12.3282 26.8305 13.9729 25.6198 17.2851C25.6198 17.2851 22.9701 24.9375 15.5232 25.8056C15.5232 25.8056 6.06619 27.9301 1.81735 17.7192C1.81735 17.7192 -0.64979 11.62 3.32494 6.25194C3.32494 6.25194 6.68293 1.61472 11.2972 1.06651C11.2972 1.06651 14.6094 0.335496 15.1806 3.71627L15.2719 5.58945Z" stroke="white" stroke-width="1.5" stroke-miterlimit="10"/>
<path d="M9.01303 12.0543C9.01303 13.3664 7.94932 14.4299 6.63737 14.4299C5.32526 14.4299 4.26172 13.3664 4.26172 12.0543C4.26172 10.7422 5.32526 9.67862 6.63737 9.67862C7.94932 9.67862 9.01303 10.7422 9.01303 12.0543Z" stroke="white" stroke-width="1.5" stroke-miterlimit="10"/>
<path d="M12.4622 19.7296C12.4622 21.0417 11.3985 22.1052 10.0866 22.1052C8.77447 22.1052 7.71094 21.0417 7.71094 19.7296C7.71094 18.4175 8.77447 17.3539 10.0866 17.3539C11.3985 17.3539 12.4622 18.4175 12.4622 19.7296Z" stroke="white" stroke-width="1.5" stroke-miterlimit="10"/>
<path d="M20.9144 18.7471C20.9144 20.0593 19.8507 21.1228 18.5387 21.1228C17.2266 21.1228 16.1631 20.0593 16.1631 18.7471C16.1631 17.435 17.2266 16.3715 18.5387 16.3715C19.8507 16.3715 20.9144 17.435 20.9144 18.7471Z" stroke="white" stroke-width="1.5" stroke-miterlimit="10"/>
<path d="M24.7154 2.70114L20.2861 7.13037" stroke="white" stroke-width="1.5" stroke-miterlimit="10"/>
<path d="M24.7154 7.13037L20.2861 2.70114" stroke="white" stroke-width="1.5" stroke-miterlimit="10"/>
</svg>
