<svg width="26" height="25" viewBox="0 0 26 25" fill="none" xmlns="http://www.w3.org/2000/svg">
<path fill-rule="evenodd" clip-rule="evenodd" d="M0.644916 0.0454125C0.308094 0.148501 0 0.590317 0 0.970231C0 1.37233 0.0213504 1.39793 2.03803 3.42086L3.9697 5.35854L3.82161 5.71715C3.47585 6.55437 3.26239 7.42212 3.16844 8.3721C3.09916 9.07277 3.13278 9.34935 3.31848 9.60565C3.50048 9.85693 3.76328 9.98337 4.10347 9.98337C4.44366 9.98337 4.70647 9.85693 4.88846 9.60565C5.03259 9.40675 5.03963 9.37309 5.12801 8.45844C5.17897 7.93166 5.37987 7.00288 5.46029 6.92246C5.48154 6.90121 5.8575 7.24296 6.29579 7.68185L7.09275 8.47988L7.0867 10.307C7.08191 11.7637 7.09608 12.2219 7.15671 12.5672C7.31706 13.4802 7.71422 14.2085 8.46041 14.9581C9.04558 15.5459 9.1474 15.8085 8.96218 16.2519C8.79416 16.6541 8.41962 16.8948 7.9588 16.8966C7.24792 16.8994 6.42717 17.2582 5.88676 17.8024C5.126 18.5686 4.8314 19.47 4.97919 20.5798C5.29867 22.9788 7.27533 24.846 9.64926 24.9914C11.3854 25.0978 13.1662 24.2055 14.0954 22.7635C14.4173 22.2641 14.5282 22.0149 14.8208 21.1334C15.2077 19.9684 15.6358 19.1156 16.2576 18.2716L16.5233 17.9109L20.0238 21.4067C23.2222 24.601 23.5431 24.9075 23.7436 24.9603C24.5213 25.1651 25.1708 24.5158 24.967 23.7372C24.9139 23.5341 24.0497 22.6575 13.2729 11.8754C6.8727 5.47204 1.56514 0.188418 1.47827 0.133991C1.29442 0.0188341 0.876841 -0.0255771 0.644916 0.0454125ZM11.5298 0.0260162C10.1027 0.170438 8.74305 0.633752 7.51234 1.39505C6.94775 1.74428 6.81505 1.93311 6.81505 2.38709C6.81505 2.65757 6.83694 2.74487 6.94613 2.90986C7.14796 3.21483 7.38678 3.33981 7.76777 3.33981C8.05597 3.33981 8.11494 3.3211 8.4055 3.13749C9.19249 2.64017 10.0823 2.27355 10.9587 2.0855C11.6208 1.94342 12.9435 1.93106 13.6062 2.06073C15.1274 2.35841 16.37 3.01662 17.4436 4.09333C18.5265 5.17938 19.1807 6.41405 19.4779 7.93239C19.6075 8.59509 19.5952 9.9178 19.4531 10.5799C19.2556 11.5004 18.8994 12.3543 18.3662 13.1855C18.113 13.5802 18.1011 13.6135 18.1011 13.9249C18.1011 14.2085 18.1202 14.278 18.2476 14.4585C18.4473 14.7412 18.7084 14.8703 19.0783 14.8694C19.4985 14.8683 19.6802 14.7404 20.0421 14.1907C21.7932 11.5311 22.0226 8.10515 20.6422 5.2319C19.0905 2.00205 15.8002 -0.0493706 12.2523 0.000903533C11.949 0.00520297 11.6238 0.016489 11.5298 0.0260162ZM11.562 3.95189C10.6983 4.0884 9.97548 4.39312 9.75332 4.7145C9.5172 5.05607 9.53117 5.5205 9.78806 5.86851C9.9102 6.03394 10.3243 6.24681 10.5239 6.24681C10.605 6.24681 10.9008 6.16762 11.1811 6.07078C12.1272 5.74412 12.9396 5.79181 13.8181 6.22546C14.9708 6.7946 15.6911 8.02488 15.6184 9.30039C15.601 9.60585 15.5457 9.88834 15.4373 10.2256C15.256 10.79 15.2618 10.9795 15.471 11.3162C15.6565 11.6148 15.9077 11.7435 16.3026 11.7424C16.8775 11.7407 17.1705 11.3932 17.4227 10.4142C17.663 9.48136 17.6236 8.415 17.3147 7.49067C16.754 5.81306 15.3528 4.50691 13.6407 4.06597C13.1077 3.92868 12.0693 3.87172 11.562 3.95189ZM14.7946 16.9613C13.9744 18.0341 13.3188 19.3305 12.8993 20.7086C12.6964 21.3755 12.4551 21.7787 12.001 22.21C11.0631 23.1009 9.76886 23.2979 8.60464 22.727C8.3199 22.5873 8.13375 22.4457 7.81604 22.1272C7.35067 21.6605 7.14283 21.2972 6.98239 20.6699C6.80459 19.9746 6.87417 19.6005 7.25374 19.2109C7.51879 18.9389 7.72541 18.8527 8.11416 18.8523C8.77354 18.8514 9.61535 18.4763 10.1374 17.9506C10.8669 17.2159 11.148 16.2027 10.8959 15.2168C10.746 14.631 10.5425 14.3001 9.96043 13.6957C9.15086 12.8551 9.03805 12.5568 9.03805 11.2568V10.4244L12.0855 13.4715L15.1329 16.5187L14.7946 16.9613Z" fill="white"/>
</svg>
