<svg width="27" height="31" viewBox="0 0 27 31" fill="none" xmlns="http://www.w3.org/2000/svg">
<path d="M8.42631 7.82027C9.43364 7.80969 10.3347 8.07042 11.2254 8.3854C11.7702 8.57048 12.3117 8.77941 12.8667 8.91676C13.874 9.1633 14.8469 9.07774 15.8065 8.70399C16.4919 8.43719 17.177 8.16633 17.8966 8.00512C20.0551 7.51182 21.9912 7.99859 23.7318 9.33103C24.215 9.69105 24.643 10.1053 25.0269 10.5646C25.1809 10.7429 25.1741 10.7805 24.9721 10.9107C23.1696 12.0072 22.1143 13.6141 21.9328 15.7212C21.7548 17.6846 22.3577 19.4045 23.7212 20.8403C24.3174 21.4605 25.0167 21.93 25.8048 22.2688C26.0306 22.3548 26.0376 22.3924 25.9414 22.6048C25.0611 24.6471 23.8858 26.528 22.4329 28.2103C21.9328 28.7757 21.3607 29.2931 20.6857 29.6664C19.6266 30.2558 18.5374 30.2628 17.4375 29.7934C16.9816 29.6051 16.5466 29.3685 16.0805 29.2111C14.5594 28.7311 13.0588 28.7928 11.5885 29.4025C11.2015 29.5637 10.8212 29.7384 10.4304 29.8825C9.00878 30.4103 7.727 30.0847 6.5623 29.1629C5.8497 28.601 5.26723 27.9257 4.7325 27.1996C3.49913 25.5344 2.52941 23.7253 1.87152 21.7584C1.40208 20.3571 1.10083 18.9148 1.02541 17.4344C0.936247 15.8068 1.06278 14.2035 1.71054 12.6923C2.73857 10.3352 4.47561 8.73146 6.96982 8.00512C7.45659 7.86125 7.95688 7.79956 8.42631 7.82027Z" stroke="white" stroke-miterlimit="10"/>
<path d="M19.082 1.65974C19.0715 3.05432 18.6399 4.22623 17.9275 5.29501C17.1151 6.50114 16.0187 7.34073 14.6347 7.79305C14.2096 7.92995 13.7777 8.00537 13.329 8.00537C13.1543 8.00537 13.0859 7.93693 13.0721 7.76221C12.9557 6.74431 13.1851 5.7989 13.6136 4.89785C14.4599 3.10205 15.8613 1.93735 17.7046 1.26573C18.0747 1.13897 18.4582 1.0703 18.849 1.00545C19.0134 0.974608 19.0476 1.08088 19.0577 1.20404C19.0715 1.37875 19.0989 1.57058 19.082 1.65974Z" stroke="white" stroke-miterlimit="10"/>
</svg>
