<svg width="27" height="27" viewBox="0 0 27 27" fill="none" xmlns="http://www.w3.org/2000/svg">
<path d="M20.4968 5.46367C19.6875 5.46367 19.0312 6.11993 19.0312 6.92922C19.0312 7.73876 19.6875 8.39502 20.4968 8.39502C21.3063 8.39502 21.9624 7.73876 21.9624 6.92922C21.9624 6.11993 21.3063 5.46367 20.4968 5.46367Z" stroke="white" stroke-miterlimit="10"/>
<path d="M13.9804 18.5505C11.1952 18.5505 8.92969 16.285 8.92969 13.5001C8.92969 10.7149 11.1952 8.4496 13.9804 8.4496C16.7651 8.4496 19.0306 10.7149 19.0306 13.5001C19.0306 16.285 16.7651 18.5505 13.9804 18.5505Z" stroke="white" stroke-miterlimit="10"/>
<path d="M18.8682 26H8.88717C4.7463 26 1.37793 22.6314 1.37793 18.4908V8.50925C1.37793 4.36837 4.7463 1 8.88717 1H18.8682C23.0088 1 26.3779 4.36837 26.3779 8.50925V18.4908C26.3779 22.6314 23.0088 26 18.8682 26Z" stroke="white" stroke-miterlimit="10"/>
</svg>
