<svg width="27" height="33" viewBox="0 0 27 33" fill="none" xmlns="http://www.w3.org/2000/svg">
<path d="M2.41821 12.5655C1.63397 12.5655 1 13.196 1 13.977V20.8085C1 21.5827 1.63397 22.2229 2.41821 22.2229C3.19581 22.2229 3.82935 21.5827 3.82935 20.8085V13.977C3.82935 13.196 3.19581 12.5655 2.41821 12.5655Z" stroke="white" stroke-miterlimit="10"/>
<path d="M24.585 12.5655C23.8044 12.5655 23.1738 13.196 23.1738 13.977V20.8085C23.1738 21.5827 23.8044 22.2229 24.585 22.2229C25.3658 22.2229 25.9997 21.5827 25.9997 20.8085V13.977C25.9997 13.196 25.3658 12.5655 24.585 12.5655Z" stroke="white" stroke-miterlimit="10"/>
<path d="M5.09766 12.5654V12.6176V25.2254C5.09766 26.395 6.04507 27.3425 7.21467 27.3425H9.48197V30.9329C9.48197 31.7107 10.1159 32.3511 10.8968 32.3511C11.6776 32.3511 12.3113 31.7107 12.3113 30.9329V27.3425H14.7225V30.9329C14.7225 31.7107 15.3564 32.3511 16.1338 32.3511C16.918 32.3511 17.5516 31.7107 17.5516 30.9329V27.3425H19.8159C20.9889 27.3425 21.9363 26.395 21.9363 25.2254V12.6176C21.9363 12.6013 21.9329 12.5852 21.9297 12.5654H5.09766Z" stroke="white" stroke-miterlimit="10"/>
<path d="M17.6825 7.98811C17.2446 7.98811 16.8916 7.62551 16.8916 7.1942C16.8916 6.75324 17.2446 6.39407 17.6825 6.39407C18.1267 6.39407 18.4797 6.75324 18.4797 7.1942C18.4797 7.62551 18.1267 7.98811 17.6825 7.98811ZM9.20759 7.98811C8.76984 7.98811 8.41046 7.62551 8.41046 7.1942C8.41046 6.75324 8.76984 6.39407 9.20759 6.39407C9.64533 6.39407 10.0049 6.75324 10.0049 7.1942C10.0049 7.62551 9.64533 7.98811 9.20759 7.98811ZM17.6269 3.98293L19.1396 1.1699L18.8289 1.00009L17.3133 3.81634C16.1731 3.23454 14.8826 2.90456 13.5138 2.90456C12.2132 2.90456 10.9882 3.20534 9.89351 3.73132L8.42355 1.00009L8.10968 1.1699L9.57341 3.88482C6.95983 5.29638 5.176 8.03727 5.15625 11.2095H21.8775C21.8577 8.10919 20.1458 5.41381 17.6269 3.98293Z" stroke="white" stroke-miterlimit="10"/>
</svg>
