<svg width="27" height="27" viewBox="0 0 27 27" fill="none" xmlns="http://www.w3.org/2000/svg">
<path d="M1.88574 26H7.04486V9.33343H1.88574V26Z" stroke="white" stroke-miterlimit="10"/>
<path d="M4.44023 7.15137C6.12551 7.15137 7.49105 5.77325 7.49105 4.07515C7.49105 2.37729 6.12551 1.00014 4.44023 1.00014C2.75495 1.00014 1.38965 2.37729 1.38965 4.07515C1.38965 5.77325 2.75495 7.15137 4.44023 7.15137Z" stroke="white" stroke-miterlimit="10"/>
<path d="M15.2917 17.2512C15.2917 14.9083 16.3699 13.5123 18.4349 13.5123C20.3318 13.5123 21.2434 14.8522 21.2434 17.2512V26H26.3783V15.4474C26.3783 10.9832 23.8478 8.8248 20.3144 8.8248C16.7792 8.8248 15.2917 11.5784 15.2917 11.5784V9.33343H10.3428V26H15.2917V17.2512Z" stroke="white" stroke-miterlimit="10"/>
</svg>
