<?xml version="1.0" encoding="utf-8"?>
<!-- Generator: Adobe Illustrator 21.0.0, SVG Export Plug-In . SVG Version: 6.00 Build 0)  -->
<svg version="1.1" id="icons" xmlns="http://www.w3.org/2000/svg" xmlns:xlink="http://www.w3.org/1999/xlink" x="0px" y="0px"
	 viewBox="0 0 24 24" style="enable-background:new 0 0 24 24;" xml:space="preserve">
<style type="text/css">
	.st0{fill:none;stroke:#10CFBD;stroke-miterlimit:10;}
	.st1{fill:#10CFBD;}
</style>
<g>
	<path class="st0" d="M4.5,3.3C4.5,3.3,4.5,3.3,4.5,3.3C4.5,3.3,4.5,3.3,4.5,3.3C3,4.6,1.9,6.3,1.2,8.1c0,0,0,0.1,0,0.1
		C0.7,9.4,0.5,10.7,0.5,12c0,1.4,0.2,2.7,0.7,3.9c0,0,0,0,0,0c0.7,2,2,3.8,3.7,5.1c0,0,0,0,0,0c0,0,0,0,0,0c2,1.5,4.4,2.5,7.1,2.5
		c2.7,0,5.1-0.9,7.1-2.5l0,0c0,0,0,0,0,0c1.5-1.2,2.7-2.8,3.5-4.6c0,0,0-0.1,0-0.1c0.5-1.3,0.9-2.8,0.9-4.3c0-1.5-0.3-3-0.9-4.3
		c0,0,0,0,0-0.1c-0.7-1.6-1.7-3-3-4.2c0-0.1-0.1-0.1-0.2-0.1c0,0,0,0,0,0c-2-1.7-4.6-2.8-7.5-2.8S6.5,1.6,4.5,3.3z"/>
	<line class="st0" x1="12" y1="23.5" x2="12" y2="0.5"/>
	<path class="st1" d="M19.1,21c1.5-1.2,2.7-2.8,3.5-4.6c0,0,0-0.1,0-0.1c0.5-1.3,0.9-2.8,0.9-4.3c0-1.5-0.3-3-0.9-4.3c0,0,0,0,0-0.1
		c-0.7-1.6-1.7-3-3-4.2c0-0.1-0.1-0.1-0.2-0.1c0,0,0,0,0,0c-2-1.7-4.6-2.8-7.5-2.8v23C14.7,23.5,17.1,22.6,19.1,21
		C19.1,21,19.1,21,19.1,21z"/>
</g>
</svg>
