<?xml version="1.0" encoding="utf-8"?>
<!-- Generator: Adobe Illustrator 21.0.0, SVG Export Plug-In . SVG Version: 6.00 Build 0)  -->
<svg version="1.1" id="icons" xmlns="http://www.w3.org/2000/svg" xmlns:xlink="http://www.w3.org/1999/xlink" x="0px" y="0px"
	 viewBox="0 0 24 24" style="enable-background:new 0 0 24 24;" xml:space="preserve">
<style type="text/css">
	.st0{fill:#10CFBD;}
</style>
<path class="st0" d="M2.8,20C2.8,20,2.8,20,2.8,20C2.8,20,2.8,20,2.8,20c1.3,1.5,3,2.6,4.8,3.3c0,0,0.1,0,0.1,0
	c1.2,0.4,2.5,0.7,3.8,0.7c1.4,0,2.7-0.2,3.9-0.7c0,0,0,0,0,0c2-0.7,3.8-2,5.1-3.7c0,0,0,0,0,0c0,0,0,0,0,0c1.5-2,2.5-4.4,2.5-7.1
	c0-2.7-0.9-5.1-2.5-7.1l0,0c0,0,0,0,0,0c-1.2-1.5-2.8-2.7-4.6-3.5c0,0-0.1,0-0.1,0C14.5,1.3,13,1,11.5,1c-1.5,0-3,0.3-4.3,0.9
	c0,0,0,0-0.1,0c-1.6,0.7-3,1.7-4.2,3C2.9,4.9,2.8,4.9,2.8,5c0,0,0,0,0,0C1.1,7,0,9.6,0,12.5S1.1,18,2.8,20z M3.4,5.9
	c0.5,0.3,1,0.5,1.5,0.7C4.3,8.3,4,10.1,4,12H1C1.1,9.7,2,7.6,3.4,5.9z M11,2V7C9.3,6.9,7.7,6.5,6.1,6C6.5,4.8,7,3.8,7.6,2.8
	C8.7,2.3,9.8,2.1,11,2z M15.4,2.8C16.1,3.9,16.6,5,17,6.3C15.4,6.7,13.7,7,12,7V2C13.2,2.1,14.3,2.3,15.4,2.8z M22,12h-3
	c0-1.7-0.2-3.4-0.7-5.1c0.5-0.2,1.1-0.4,1.6-0.7C21.1,7.9,21.9,9.8,22,12z M19.9,18.8c-0.6-0.3-1.2-0.5-1.8-0.7
	c0.5-1.5,0.8-3.3,0.9-5h3C21.9,15.2,21.1,17.1,19.9,18.8z M14.8,22.5C13.9,22.8,13,22.9,12,23v-5c1.6,0,3.2,0.2,4.8,0.7
	c-0.4,1-0.9,2-1.6,3.1L14.8,22.5z M8.2,22.5C8,22,7.7,21.6,7.5,21.2c-0.5-0.8-0.9-1.5-1.2-2.3c1.5-0.5,3.1-0.8,4.7-0.9V23
	C10,22.9,9.1,22.8,8.2,22.5z M11,8v4H5c0-1.7,0.2-3.4,0.7-5.1C7.4,7.5,9.2,7.9,11,8z M17.3,7.2C17.8,8.8,18,10.4,18,12h-6V8
	c0,0,0,0,0,0C13.8,8,15.6,7.7,17.3,7.2z M12,17v-4h6c-0.1,1.6-0.4,3.3-0.8,4.7C15.4,17.3,13.7,17,12,17z M11,13v4
	c-1.7,0.1-3.4,0.4-5,1c-0.5-1.5-0.8-3.3-0.9-5H11z M4,13c0.1,1.9,0.4,3.7,1,5.4c-0.6,0.2-1.1,0.5-1.7,0.8C2,17.4,1.1,15.3,1,13H4z
	 M4.1,19.9c0.4-0.2,0.9-0.4,1.3-0.6c0.4,0.9,0.8,1.6,1.3,2.4c0,0,0,0.1,0.1,0.1C5.7,21.3,4.8,20.7,4.1,19.9z M16.3,21.8
	c0.6-1,1-1.9,1.4-2.9c0.5,0.2,1,0.4,1.5,0.6C18.4,20.5,17.4,21.2,16.3,21.8z M19.3,5.4C18.8,5.6,18.4,5.8,18,6
	c-0.3-0.8-0.6-1.6-1-2.4C17.8,4.1,18.6,4.7,19.3,5.4z M6,3.6c-0.3,0.7-0.6,1.3-0.9,2C4.8,5.5,4.4,5.3,4.1,5.1C4.6,4.5,5.3,4,6,3.6z"
	/>
</svg>
