<?xml version="1.0" encoding="utf-8"?>
<!-- Generator: Adobe Illustrator 21.0.0, SVG Export Plug-In . SVG Version: 6.00 Build 0)  -->
<svg version="1.1" id="Layer_1" xmlns="http://www.w3.org/2000/svg" xmlns:xlink="http://www.w3.org/1999/xlink" x="0px" y="0px"
	 viewBox="0 0 19.4 25.6" style="enable-background:new 0 0 19.4 25.6;" xml:space="preserve">
<style type="text/css">
	.st0{fill:#FFFFFF;}
	.st1{fill:#00665E;}
	.st2{fill:#65D8C8;}
	.st3{fill:#00B09A;}
	.st4{fill:#00837E;}
</style>
<title>Asset 4</title>
<g>
	<path class="st0" d="M15.7,3.9c-0.9,0-1.8,0.2-2.7,0.5c1.4,0.3,2.8,0.8,4.1,1.7c0.9,0.6,1.7,1.3,2.4,2.1v1.2
		C18.7,8.7,17.9,8,17,7.6c-1.2-0.6-2.4-1-3.6-1.1c0.8,0.5,1.5,1.2,2,2c0.7,1,1.2,2.3,1.4,3.7c0,0.1-0.1,0.3-0.2,0.3s-0.3,0-0.3-0.1
		c-0.5-1.2-1.2-2.2-2-2.9c-0.7-0.7-1.6-1.2-2.5-1.3c1.1,1.5,1.7,3.3,1.7,5.2c0,0.1-0.1,0.2-0.2,0.3c-0.1,0-0.3-0.1-0.3-0.2
		c-0.4-1.7-1.3-3.2-2.6-4.3c-0.1,2.7,0,7.3,0.2,9.4c2.3-1.5,5.5-2.7,8.4-2.2c-0.1,0.2-0.1,0.5-0.2,0.7c-3.2,0.2-5.4,1.3-7.8,3.1
		c1.3,1.1,2.5,2.2,3.9,2.7c-0.4,0.4-0.9,0.7-1.4,1c-1.4-0.7-2.7-2-3.8-2.9c-1.1,0.9-2.4,2.1-3.8,2.9c-0.5-0.3-0.9-0.7-1.4-1
		c1.4-0.5,2.6-1.6,3.9-2.7c-2.4-1.8-4.6-2.8-7.8-3.1c-0.1-0.2-0.2-0.5-0.2-0.7c2.8-0.5,6.1,0.7,8.4,2.2c0.3-2,0.3-6.7,0.2-9.4
		c-1.2,1.1-2.1,2.6-2.6,4.3c0,0.1-0.2,0.2-0.3,0.2c-0.1,0-0.2-0.1-0.2-0.3C6,11.5,6.6,9.7,7.6,8.2C6.7,8.4,5.9,8.8,5.1,9.5
		s-1.5,1.8-2,2.9c-0.1,0.1-0.2,0.2-0.3,0.1c-0.1,0-0.2-0.2-0.2-0.3C2.9,10.8,3.3,9.6,4,8.5c0.6-0.8,1.2-1.5,2-2
		C4.8,6.6,3.5,6.9,2.4,7.6C1.5,8.1,0.7,8.7-0.1,9.4V8.1C0.6,7.3,1.4,6.6,2.3,6c1.3-0.9,2.6-1.4,4.1-1.7C5.5,4,4.6,3.8,3.7,3.8
		C3,3.8,2.2,3.9,1.6,4.1C1,4.3,0.5,4.5,0,4.8V4c0.7-0.5,1.4-0.8,2.1-1.1C3,2.6,4,2.4,5,2.4c1.3,0,2.7,0.3,3.7,0.7
		C8.8,2.2,9,0.9,9.3-0.1c0.1,0,0.2,0,0.3,0s0.2,0,0.3,0c0.3,0.9,0.5,2.2,0.6,3.2c1-0.4,2.5-0.7,3.7-0.7c1,0,2,0.2,2.9,0.5
		c0.7,0.3,1.4,0.6,2.1,1.1v0.9c-0.5-0.3-1.1-0.5-1.6-0.7C17.1,4,16.4,3.9,15.7,3.9z"/>
	<path class="st1" d="M9.8,20.8c-1.1,0.9-2.4,2.1-3.8,2.9c1.1,0.8,2.4,1.4,3.8,2l0,0l0,0c1.4-0.5,2.6-1.2,3.8-2
		C12.1,22.9,10.9,21.7,9.8,20.8z"/>
	<g>
		<path class="st2" d="M10.7,3.1c1-0.4,2.5-0.7,3.7-0.7c1,0,2,0.2,2.9,0.5C18,3.2,18.7,3.5,19.4,4V3.1c0-2.8-7.1-3.1-9.3-3.1
			C10.4,0.9,10.6,2.2,10.7,3.1z"/>
		<path class="st2" d="M17.8,4.2c-0.7-0.2-1.4-0.3-2.1-0.3c-0.9,0-1.8,0.2-2.7,0.5c1.4,0.3,2.8,0.8,4.1,1.7c0.9,0.6,1.7,1.3,2.4,2.1
			V4.9C18.9,4.6,18.4,4.3,17.8,4.2z"/>
		<path class="st2" d="M2.2,2.9c0.9-0.3,1.9-0.5,2.9-0.5c1.3,0,2.7,0.3,3.7,0.7c0.1-0.9,0.3-2.2,0.6-3.2C7.1-0.1,0.1,0.2,0.1,3v1
			C0.8,3.5,1.5,3.2,2.2,2.9z"/>
		<path class="st2" d="M2.5,6c1.3-0.9,2.6-1.4,4.1-1.7C5.7,4,4.8,3.8,3.9,3.8c-0.7,0-1.5,0.1-2.1,0.3C1.2,4.3,0.7,4.5,0.2,4.8V8
			C0.8,7.3,1.6,6.6,2.5,6z"/>
	</g>
	<g>
		<path class="st3" d="M19.5,9.3c-0.8-0.7-1.6-1.4-2.5-1.8c-1.2-0.6-2.4-1-3.6-1.1c0.8,0.5,1.5,1.2,2,2c0.7,1,1.2,2.3,1.4,3.7
			c0,0.1-0.1,0.3-0.2,0.3s-0.3,0-0.3-0.1c-0.5-1.2-1.2-2.2-2-2.9c-0.7-0.7-1.6-1.2-2.5-1.3c1.1,1.5,1.7,3.3,1.7,5.2
			c0,0.1-0.1,0.2-0.2,0.3c-0.1,0-0.3-0.1-0.3-0.2c-0.4-1.7-1.3-3.2-2.6-4.3c-0.1,2.7,0,7.3,0.2,9.4c2.3-1.5,5.5-2.7,8.4-2.2
			c0.3-1,0.4-2,0.4-3L19.5,9.3L19.5,9.3z"/>
		<path class="st3" d="M9.1,8.9C7.9,10,7,11.5,6.5,13.2c0,0.1-0.2,0.2-0.3,0.2c-0.1,0-0.2-0.1-0.2-0.3c0.1-1.9,0.7-3.7,1.7-5.2
			C6.8,8.1,6,8.5,5.2,9.2s-1.5,1.8-2,2.9c-0.1,0.1-0.2,0.2-0.3,0.1c-0.1,0-0.2-0.2-0.2-0.3C3,10.5,3.4,9.3,4.1,8.2
			c0.6-0.8,1.2-1.5,2-2C4.9,6.3,3.6,6.6,2.5,7.3C1.6,7.8,0.8,8.4,0,9.1v3.8c0,1,0.1,2,0.4,3c2.8-0.5,6.1,0.7,8.4,2.2
			C9.2,16.3,9.2,11.6,9.1,8.9z"/>
	</g>
	<g>
		<path class="st4" d="M11,19.9c1.3,1.1,2.5,2.2,3.9,2.7c1.8-1.5,3.2-3.5,3.9-5.8C15.6,17.1,13.4,18.2,11,19.9z"/>
		<path class="st4" d="M0.7,16.8c0.7,2.3,2.1,4.3,3.9,5.8C6,22,7.2,21,8.5,19.9C6.1,18.2,4,17.1,0.7,16.8z"/>
	</g>
</g>
</svg>
