<svg width="11" height="27" viewBox="0 0 11 27" fill="none" xmlns="http://www.w3.org/2000/svg">
<path d="M6.16858 18.6499V24.3412H7.92847C8.8361 24.3412 9.57084 25.0766 9.57084 25.9839V26H1.44727V25.9839C1.44727 25.0766 2.18268 24.3412 3.09013 24.3412H4.8502V18.5761" stroke="white" stroke-miterlimit="10"/>
<path d="M7.59342 7.43533H10.0601V6.49196H7.59342C7.34972 6.49196 7.1524 6.28035 7.1524 6.0197C7.1524 5.75921 7.34972 5.54776 7.59342 5.54776H10.0507C9.90354 3.01007 7.93652 0.99983 5.52998 0.99983C3.12411 0.99983 1.15659 3.01007 1.00997 5.54776H3.46754C3.71091 5.54776 3.90773 5.75921 3.90773 6.0197C3.90773 6.28035 3.71091 6.49196 3.46754 6.49196H1V7.43533H3.46754C3.71091 7.43533 3.90773 7.64694 3.90773 7.90776C3.90773 8.16808 3.71091 8.37969 3.46754 8.37969H1V10.6104H10.0601V8.37969H7.59342C7.34972 8.37969 7.1524 8.16808 7.1524 7.90776C7.1524 7.64694 7.34972 7.43533 7.59342 7.43533Z" stroke="white" stroke-miterlimit="10"/>
<path d="M1 9.29179V13.8248C1 16.5049 3.02853 18.6777 5.53015 18.6777C8.03243 18.6777 10.0601 16.5049 10.0601 13.8248V11.5077V9.29179" stroke="white" stroke-miterlimit="10"/>
</svg>
