<svg id="Layer_1" data-name="Layer 1" xmlns="http://www.w3.org/2000/svg" xmlns:xlink="http://www.w3.org/1999/xlink" viewBox="0 0 932.8 203.44"><defs><style>.cls-1{fill:#575756;}.cls-2{fill:url(#linear-gradient);}.cls-3{fill:url(#linear-gradient-2);}.cls-4{fill:url(#linear-gradient-3);}.cls-5{fill:url(#linear-gradient-4);}.cls-6{fill:url(#linear-gradient-5);}.cls-7{fill:url(#linear-gradient-6);}.cls-8{fill:url(#linear-gradient-7);}.cls-9{fill:url(#linear-gradient-8);}.cls-10{fill:url(#linear-gradient-9);}.cls-11{fill:url(#linear-gradient-10);}.cls-12{fill:url(#linear-gradient-11);}.cls-13{fill:url(#linear-gradient-12);}.cls-14{fill:url(#linear-gradient-13);}.cls-15{fill:url(#linear-gradient-14);}.cls-16{fill:url(#linear-gradient-15);}.cls-17{fill:url(#linear-gradient-16);}.cls-18{fill:url(#linear-gradient-17);}.cls-19{fill:url(#linear-gradient-18);}.cls-20{fill:url(#linear-gradient-19);}.cls-21{fill:url(#linear-gradient-20);}.cls-22{fill:url(#linear-gradient-21);}.cls-23{fill:url(#linear-gradient-22);}.cls-24{fill:url(#linear-gradient-23);}.cls-25{fill:url(#linear-gradient-24);}</style><linearGradient id="linear-gradient" x1="877.9" y1="-36.32" x2="713.1" y2="109.29" gradientTransform="translate(156.48 -447) rotate(34.29)" gradientUnits="userSpaceOnUse"><stop offset="0" stop-color="#62b34f"/><stop offset="0.46" stop-color="#51bab4"/><stop offset="1" stop-color="#0094d3"/></linearGradient><linearGradient id="linear-gradient-2" x1="872.08" y1="-42.91" x2="707.27" y2="102.7" gradientTransform="translate(152.44 -443.19) rotate(34.28)" xlink:href="#linear-gradient"/><linearGradient id="linear-gradient-3" x1="866.04" y1="-49.75" x2="701.24" y2="95.87" gradientTransform="translate(149.49 -439.15) rotate(34.37)" xlink:href="#linear-gradient"/><linearGradient id="linear-gradient-4" x1="859.68" y1="-56.94" x2="694.88" y2="88.67" gradientTransform="translate(148.7 -434.78) rotate(34.64)" xlink:href="#linear-gradient"/><linearGradient id="linear-gradient-5" x1="934.27" y1="27.48" x2="769.47" y2="173.09" gradientTransform="matrix(1, 0, 0, 1, 0, 0)" xlink:href="#linear-gradient"/><linearGradient id="linear-gradient-6" x1="939.5" y1="33.39" x2="774.69" y2="179.01" gradientTransform="matrix(1, 0, 0, 1, 0, 0)" xlink:href="#linear-gradient"/><linearGradient id="linear-gradient-7" x1="944.77" y1="39.36" x2="779.97" y2="184.97" gradientTransform="matrix(1, 0, 0, 1, 0, 0)" xlink:href="#linear-gradient"/><linearGradient id="linear-gradient-8" x1="950.04" y1="45.32" x2="785.23" y2="190.93" gradientTransform="matrix(1, 0, 0, 1, 0, 0)" xlink:href="#linear-gradient"/><linearGradient id="linear-gradient-9" x1="955.42" y1="51.42" x2="790.62" y2="197.03" gradientTransform="matrix(1, 0, 0, 1, 0, 0)" xlink:href="#linear-gradient"/><linearGradient id="linear-gradient-10" x1="960.99" y1="57.71" x2="796.18" y2="203.33" gradientTransform="matrix(1, 0, 0, 1, 0, 0)" xlink:href="#linear-gradient"/><linearGradient id="linear-gradient-11" x1="966.69" y1="64.17" x2="801.89" y2="209.79" gradientTransform="matrix(1, 0, 0, 1, 0, 0)" xlink:href="#linear-gradient"/><linearGradient id="linear-gradient-12" x1="972.2" y1="70.4" x2="807.39" y2="216.01" gradientTransform="matrix(1, 0, 0, 1, 0, 0)" xlink:href="#linear-gradient"/><linearGradient id="linear-gradient-13" x1="884.11" y1="-29.29" x2="719.31" y2="116.32" gradientTransform="matrix(1, 0, 0, 1, 0, 0)" xlink:href="#linear-gradient"/><linearGradient id="linear-gradient-14" x1="889.89" y1="-22.75" x2="725.09" y2="122.86" gradientTransform="matrix(1, 0, 0, 1, 0, 0)" xlink:href="#linear-gradient"/><linearGradient id="linear-gradient-15" x1="895.65" y1="-16.24" x2="730.84" y2="129.38" gradientTransform="matrix(1, 0, 0, 1, 0, 0)" xlink:href="#linear-gradient"/><linearGradient id="linear-gradient-16" x1="901.58" y1="-9.52" x2="736.78" y2="136.09" gradientTransform="matrix(1, 0, 0, 1, 0, 0)" xlink:href="#linear-gradient"/><linearGradient id="linear-gradient-17" x1="907.1" y1="-3.28" x2="742.29" y2="142.33" gradientTransform="matrix(1, 0, 0, 1, 0, 0)" xlink:href="#linear-gradient"/><linearGradient id="linear-gradient-18" x1="912.71" y1="3.07" x2="747.91" y2="148.69" gradientTransform="matrix(1, 0, 0, 1, 0, 0)" xlink:href="#linear-gradient"/><linearGradient id="linear-gradient-19" x1="918.34" y1="9.45" x2="753.54" y2="155.06" gradientTransform="matrix(1, 0, 0, 1, 0, 0)" xlink:href="#linear-gradient"/><linearGradient id="linear-gradient-20" x1="923.84" y1="15.68" x2="759.04" y2="161.29" gradientTransform="matrix(1, 0, 0, 1, 0, 0)" xlink:href="#linear-gradient"/><linearGradient id="linear-gradient-21" x1="929.05" y1="21.57" x2="764.25" y2="167.18" gradientTransform="matrix(1, 0, 0, 1, 0, 0)" xlink:href="#linear-gradient"/><linearGradient id="linear-gradient-22" x1="977.81" y1="76.75" x2="813" y2="222.36" gradientTransform="matrix(0.82, 0.57, -0.57, 0.82, 252.06, -471.97)" xlink:href="#linear-gradient"/><linearGradient id="linear-gradient-23" x1="982.99" y1="82.62" x2="818.19" y2="228.23" gradientTransform="translate(258.49 -471.03) rotate(34.92)" xlink:href="#linear-gradient"/><linearGradient id="linear-gradient-24" x1="988.61" y1="88.98" x2="823.81" y2="234.59" gradientTransform="translate(263.09 -473.22) rotate(34.92)" xlink:href="#linear-gradient"/></defs><path class="cls-1" d="M33.6,61.4H28a3.63,3.63,0,0,1-2-3.12,1.75,1.75,0,0,1,1.93-2c1.2,0,2.05.8,2.28,2.27h3.06C33,54.87,31,52.94,27.92,52.94a4.69,4.69,0,0,0-5.06,5,5,5,0,0,0,1.36,3.46h-2v3.36H33.6Z"/><path class="cls-1" d="M43.31,74.41c0,2.56-1,4.66-4.37,4.66H19.05a5.45,5.45,0,0,1-5.74-5.73V64.81H6.78v8.53A12,12,0,0,0,19.05,85.61H41.38a8.28,8.28,0,0,0,8.47-8.47V46.06H43.31Z"/><path class="cls-1" d="M60.74,86.29A5.49,5.49,0,0,1,55,92H52.22v6.53H55A12,12,0,0,0,67.28,86.29V58.22H60.74Z"/><path class="cls-1" d="M139.07,90.15a3.93,3.93,0,1,0,4,3.87A4,4,0,0,0,139.07,90.15Z"/><path class="cls-1" d="M165.6,76.52a2.37,2.37,0,0,1-2.39,2.55h-7.37v0c-1.2-.17-2.56-.34-5.8-7.67-5.74-12.16-14.72-16.93-24.94-13.19v6c8.52-3.3,13.58,0,17.72,8.07,1.48,2.95,2.73,5.85,3.64,6.81H121.19a3.5,3.5,0,0,1-3.64-3.69V69a12.21,12.21,0,0,0-12.44-12.5h-.63A12.21,12.21,0,0,0,92,69v6.36a3.5,3.5,0,0,1-3.64,3.69H83.75a2.37,2.37,0,0,1-2.39-2.55V46.06H74.83V78.79a6.73,6.73,0,0,0,6.82,6.82H88.4A9.19,9.19,0,0,0,95.9,82a14.7,14.7,0,0,0,9.49,3.41,10.91,10.91,0,0,0,8.18-3.75,9,9,0,0,0,7.62,3.92h44.18a6.68,6.68,0,0,0,6.76-6.82V46.06H165.6ZM111,72.94a5.82,5.82,0,0,1-5.63,5.91,8.39,8.39,0,0,1-6.82-3.13V69a5.66,5.66,0,0,1,5.91-6h.63A5.66,5.66,0,0,1,111,69Z"/><rect class="cls-1" x="179.91" y="46.06" width="6.53" height="39.55"/><path class="cls-1" d="M206.44,56.57h-.62A12.17,12.17,0,0,0,193.37,69v4a12.34,12.34,0,0,0,12,12.5h6.87v1c0,4.61-3.46,7.11-14.71,5.12v6.08c13.81,3.24,21.25-1.65,21.25-9.61V69A12.12,12.12,0,0,0,206.44,56.57ZM212.29,79h-6.81a5.9,5.9,0,0,1-5.57-6V69a5.63,5.63,0,0,1,5.91-5.91h.62A5.59,5.59,0,0,1,212.29,69Z"/><path class="cls-1" d="M243.93,52a4,4,0,0,0,3.92-3.92A4,4,0,1,0,243.93,52Z"/><path class="cls-1" d="M255.07,52a3.92,3.92,0,1,0,0-7.84,4,4,0,0,0-3.92,3.92A4,4,0,0,0,255.07,52Z"/><path class="cls-1" d="M277,92A4,4,0,1,0,281,96,4,4,0,0,0,277,92Z"/><path class="cls-1" d="M302.89,91a3.95,3.95,0,0,0,0,7.89,3.95,3.95,0,0,0,0-7.89Z"/><path class="cls-1" d="M305.45,78.79V58.68h-6.54V76.52a2.39,2.39,0,0,1-2.38,2.55H284.72c-3.3,0-4.38-2.1-4.38-4.66v-1a14.63,14.63,0,0,0,.06-1.59V58.73h-6.59l.05,15.85c-.05,2.45-1,4.49-4.32,4.49H265a3.51,3.51,0,0,1-3.69-3.69V56.52h-13A12.16,12.16,0,0,0,235.92,69v3.92A12.35,12.35,0,0,0,248,85.44a11.26,11.26,0,0,0,8.86-3.64A10.25,10.25,0,0,0,265,85.61h4.42a9.7,9.7,0,0,0,7.67-3.18,9.44,9.44,0,0,0,6.76,3.18h14.77A6.73,6.73,0,0,0,305.45,78.79Zm-50.67-3.07A8.26,8.26,0,0,1,248,78.85a5.74,5.74,0,0,1-5.57-5.91V69a5.61,5.61,0,0,1,5.86-6h6.47Z"/><path class="cls-1" d="M291.76,91a3.95,3.95,0,1,0,0,7.89,3.95,3.95,0,0,0,0-7.89Z"/><path class="cls-1" d="M359.58,53.17a4,4,0,1,0-4-4A4,4,0,0,0,359.58,53.17Z"/><path class="cls-1" d="M383.21,76.52a2.37,2.37,0,0,1-2.39,2.55h-6.46v-5c0-11.65-4.83-17.11-14.49-17.11-6.31,0-11.76,4.32-16.2,9.38V59.81h-6.53V79.07h-9V58.22h-6.59V86.29A5.44,5.44,0,0,1,315.84,92H313v6.53h2.84a12,12,0,0,0,12.27-12.27v-.68H383a6.68,6.68,0,0,0,6.76-6.82V46.06h-6.53Zm-15.16,2.55H343.67V72.54c5.06-6,10.23-9.09,15.4-9.09,5.34,0,9,3.07,9,10.63Z"/><rect class="cls-1" x="397.52" y="46.06" width="6.53" height="39.55"/><path class="cls-1" d="M424.05,56.57h-.62A12.17,12.17,0,0,0,411,69v4a12.34,12.34,0,0,0,12,12.5h6.87v1c0,4.61-3.46,7.11-14.71,5.12v6.08c13.8,3.24,21.25-1.65,21.25-9.61V69A12.12,12.12,0,0,0,424.05,56.57ZM429.9,79h-6.81a5.9,5.9,0,0,1-5.57-6V69a5.63,5.63,0,0,1,5.91-5.91h.62A5.59,5.59,0,0,1,429.9,69Z"/><path class="cls-1" d="M472.56,52.77a4,4,0,0,0,0-7.9,4,4,0,0,0,0,7.9Z"/><path class="cls-1" d="M461.42,52.77a4,4,0,1,0-4-4A4,4,0,0,0,461.42,52.77Z"/><path class="cls-1" d="M466.31,56.52h-.91a12.13,12.13,0,0,0-12.16,12.1v4.83a12,12,0,0,0,12.16,12.1h1.42a11.62,11.62,0,0,0,11.59-11.7V68.62A12.07,12.07,0,0,0,466.31,56.52Zm5.57,17.61A4.88,4.88,0,0,1,467.05,79H465.4a5.63,5.63,0,0,1-5.57-5.63V68.62a5.41,5.41,0,0,1,5.57-5.57h.91a5.41,5.41,0,0,1,5.57,5.57Z"/><path class="cls-1" d="M547.76,53.05a4,4,0,1,0-3.92-4A4,4,0,0,0,547.76,53.05Z"/><path class="cls-1" d="M561.22,76.52a2.36,2.36,0,0,1-2.38,2.55h-7.67V58.22h-6.59V86.29A5.44,5.44,0,0,1,538.9,92h-2.84v6.53h2.84a12,12,0,0,0,12.27-12.27v-.68H561a6.69,6.69,0,0,0,6.76-6.82V46.06h-6.54Z"/><rect class="cls-1" x="575.54" y="46.06" width="6.53" height="39.55"/><path class="cls-1" d="M608.26,52a4,4,0,0,0,3.92-3.92A4,4,0,1,0,608.26,52Z"/><path class="cls-1" d="M619.39,52a3.92,3.92,0,0,0,0-7.84,4,4,0,0,0-3.92,3.92A4,4,0,0,0,619.39,52Z"/><path class="cls-1" d="M645.86,50h-6a3.73,3.73,0,0,1-2-3.24,1.83,1.83,0,0,1,2-2.1A2.42,2.42,0,0,1,642.22,47h3.36c-.29-4-2.5-6-5.8-6-3.46,0-5.4,2.15-5.4,5.34A5.35,5.35,0,0,0,635.75,50h-2v3.7h12.16Z"/><path class="cls-1" d="M655.86,90.89a4,4,0,1,0,3.92,3.92A4,4,0,0,0,655.86,90.89Z"/><path class="cls-1" d="M667,90.89a4,4,0,1,0,3.92,3.92A4,4,0,0,0,667,90.89Z"/><path class="cls-1" d="M688.41,57.54v3.29a10.22,10.22,0,0,0-7.85,10v3a7.85,7.85,0,0,0,2,5.28H670.12c-3.3,0-4.38-2.1-4.38-4.66v-1a14.63,14.63,0,0,0,.06-1.59V58.73h-6.59l0,15.85c0,2.45-1,4.49-4.31,4.49h-7c-3.35,0-4.37-2.1-4.37-4.66V58.73h-6.54V74.41c0,2.56-.91,4.66-4.31,4.66h-3.4a3.52,3.52,0,0,1-3.7-3.69V56.52h-13A12.17,12.17,0,0,0,600.24,69v3.92a12.35,12.35,0,0,0,12.11,12.5,11.27,11.27,0,0,0,8.86-3.64,10.25,10.25,0,0,0,8.13,3.81h3.34a9.7,9.7,0,0,0,7.67-3.18,9.31,9.31,0,0,0,6.7,3.18h7.78a9.69,9.69,0,0,0,7.67-3.18,9.46,9.46,0,0,0,6.76,3.18h36.42A12.2,12.2,0,0,0,717.9,73.39V69.47C717.67,60.15,706.08,53.28,688.41,57.54Zm-69.3,18.18a8.29,8.29,0,0,1-6.76,3.13,5.74,5.74,0,0,1-5.57-5.91V69a5.61,5.61,0,0,1,5.85-6h6.48Zm78,3.35h-5.69a5.66,5.66,0,0,1-5.34-5.45V71.06c0-3.35,1.93-5.34,5.57-5.34,3.47,0,5.46,2.1,5.46,5.34Zm8.35,0h-2.79V71.23c0-4.71-2.72-7.84-6.64-8.75,8.58-.85,15,2.5,15.22,7l.06,3.75A5.84,5.84,0,0,1,705.51,79.07Z"/><path class="cls-1" d="M532.66,74.76A10.84,10.84,0,0,1,521.85,85.6H492.3a6.7,6.7,0,0,1-6.79-6.8V46.06H492V76.53a2.39,2.39,0,0,0,2.41,2.55h27c2.84,0,4.73-2.32,4.73-5.19,0-3.57-2.69-5.39-6.26-5.39h-17.1l-1.18-4.8,10-17.64,6.09,2.28L509.86,62h10A12.65,12.65,0,0,1,532.66,74.76Z"/><path class="cls-1" d="M30.7,143.2v5.18H6.78v-4.14l15.49-22.93H7.72v-5.13H30.09v4.19L14.69,143.2Z"/><path class="cls-1" d="M37.62,129.27l-1-3.82c7.63-3.2,18-3.44,18,6.64v16.2H49v-2.92a10,10,0,0,1-7.49,3.3c-4,0-6.35-2.83-6.35-6.5,0-5.37,5.22-9,13.89-8.67v-1.27C49,126.53,43,127.19,37.62,129.27Zm2.83,12.19c0,1.93,1.55,2.87,3.48,2.87A7,7,0,0,0,49,142.12v-5.37C43.18,136.14,40.45,139.2,40.45,141.46Z"/><path class="cls-1" d="M86.81,129.27l-1-3.82c7.63-3.2,18-3.44,18,6.64v16.2h-5.7v-2.92a10,10,0,0,1-7.49,3.3c-4,0-6.36-2.83-6.36-6.5,0-5.37,5.23-9,13.89-8.67v-1.27C98.2,126.53,92.22,127.19,86.81,129.27Zm2.82,12.19c0,1.93,1.56,2.87,3.49,2.87a7,7,0,0,0,5.08-2.21v-5.37C92.37,136.14,89.63,139.2,89.63,141.46Z"/><path class="cls-1" d="M116.66,142.21a2.17,2.17,0,0,0,2.41,2.41,9,9,0,0,0,2.11-.24v4.1a30.7,30.7,0,0,1-4.42.38c-4.38,0-5.79-2.27-5.79-6.13V129.5h-3l.76-4.28H111v-5.75l5.69-1.41v7.16h4.81l-.76,4.28h-4Z"/><path class="cls-1" d="M129.85,156.15h-3.44A65.32,65.32,0,0,0,128.3,146l.09-1.69h4.24l-.19,1.65A49.77,49.77,0,0,1,129.85,156.15Z"/><path class="cls-1" d="M155.35,121.31v27.07h-6.22V121.31h-8.81v-5.13H164.2v5.13Z"/><path class="cls-1" d="M171.31,129.27l-1-3.82c7.63-3.2,18-3.44,18,6.64v16.2h-5.7v-2.92a10,10,0,0,1-7.49,3.3c-4,0-6.36-2.83-6.36-6.5,0-5.37,5.23-9,13.89-8.67v-1.27C182.7,126.53,176.72,127.19,171.31,129.27Zm2.82,12.19c0,1.93,1.56,2.87,3.49,2.87a7,7,0,0,0,5.08-2.21v-5.37C176.87,136.14,174.13,139.2,174.13,141.46Z"/><path class="cls-1" d="M199.94,124.65l3.34,5,1.93,3.53h0l2-3.62,3.25-4.95h5.93l-7.72,11.59,7.95,12.14h-6.82l-3.35-5-2-3.62h-.05l-2,3.67-3.2,4.94H193l8-12.14-7.86-11.59Z"/><path class="cls-1" d="M233.75,129.27l-1-3.82c7.63-3.2,18-3.44,18,6.64v16.2h-5.7v-2.92a10,10,0,0,1-7.49,3.3c-4,0-6.35-2.83-6.35-6.5,0-5.37,5.22-9,13.89-8.67v-1.27C245.15,126.53,239.17,127.19,233.75,129.27Zm2.83,12.19c0,1.93,1.55,2.87,3.48,2.87a7,7,0,0,0,5.09-2.21v-5.37C239.31,136.14,236.58,139.2,236.58,141.46Z"/><path class="cls-1" d="M256.92,148.29V124.65h5.7v2.17c2.78-1.89,4.75-2.64,7.72-2.64,4.71,0,7.11,2.73,7.11,7.68v16.43h-5.7V133.74c0-2.59-1.17-4.05-3.86-4.05a9.17,9.17,0,0,0-5.27,2.17v16.43Z"/><path class="cls-1" d="M292.05,148.67c-6.22,0-9.14-5.28-9.14-12.34S286.12,124,292.38,124a8.33,8.33,0,0,1,6.12,2.69V116h5.65v32.3H298.5v-2.45A9,9,0,0,1,292.05,148.67Zm2.07-20.06c-3.34,0-5.27,2.78-5.27,7.72s1.93,7.72,5.27,7.72a7,7,0,0,0,4.38-1.6V130.21A7.31,7.31,0,0,0,294.12,128.61Z"/><path class="cls-1" d="M335,148.86c-10.31,0-14.55-6.74-14.55-16.58s4.24-16.57,14.55-16.57a26.41,26.41,0,0,1,10.88,2.44v4.76c-4.62-1.41-7.63-2.07-10.22-2.07-5.88,0-9,3.86-9,11.44s3.11,11.4,9,11.4c2.59,0,5.6-.62,10.22-2v4.76A26.42,26.42,0,0,1,335,148.86Z"/><path class="cls-1" d="M372.48,124.65v23.73h-5.7v-2.3a12,12,0,0,1-7.72,2.78c-4.76,0-7.11-2.78-7.11-7.68V124.65h5.7V139.3c0,2.59,1.17,4,3.86,4a9.47,9.47,0,0,0,5.27-2.17V124.65Z"/><path class="cls-1" d="M377.89,147.07v-4.24a21.1,21.1,0,0,0,8.2,2c3.53,0,4.47-1.69,4.47-2.87,0-1.88-2.26-2.59-4.85-3.53-3.34-1.13-7.35-2.64-7.35-7.34s3.58-7.82,10.27-7.82a17.81,17.81,0,0,1,8.05,1.93v4.19a13.2,13.2,0,0,0-6.54-1.88c-3.72,0-5.28,1.69-5.28,3.11,0,2,2.55,2.73,5.37,3.76,3.3,1.18,7,2.73,7,7,0,5-4.19,7.77-9.94,7.77A23,23,0,0,1,377.89,147.07Z"/><path class="cls-1" d="M408.93,142.21a2.16,2.16,0,0,0,2.4,2.41,9.18,9.18,0,0,0,2.12-.24v4.1a31,31,0,0,1-4.43.38c-4.38,0-5.79-2.27-5.79-6.13V129.5h-3l.75-4.28h2.26v-5.75l5.7-1.41v7.16h4.8L413,129.5h-4.05Z"/><path class="cls-1" d="M417.54,136.33c0-7,3.49-12.34,11.07-12.34s11.07,5.37,11.07,12.34-3.49,12.34-11.07,12.34S417.54,143.3,417.54,136.33Zm5.28,0c0,4.61,1.83,8.24,5.79,8.24s5.7-3.63,5.7-8.24-1.75-8.24-5.7-8.24S422.82,131.71,422.82,136.33Z"/><path class="cls-1" d="M480.27,131.86v16.43h-5.7V133.74c0-2.59-1.18-4.05-3.86-4.05a9,9,0,0,0-5.18,2.21,12.33,12.33,0,0,1,.09,1.84v14.55H460V133.74c0-2.59-1.18-4.05-3.86-4.05a8.57,8.57,0,0,0-5.08,2.17v16.43h-5.7V124.65H451v3.16c2.11-2.17,4.37-3.63,7.53-3.63s5.32,1.27,6.31,3.91c2.78-2.68,5.32-3.91,8.29-3.91C477.91,124.18,480.27,126.91,480.27,131.86Z"/><path class="cls-1" d="M485.68,147.07v-4.24a21,21,0,0,0,8.2,2c3.53,0,4.47-1.69,4.47-2.87,0-1.88-2.26-2.59-4.85-3.53-3.34-1.13-7.35-2.64-7.35-7.34s3.58-7.82,10.27-7.82a17.81,17.81,0,0,1,8.05,1.93v4.19a13.2,13.2,0,0,0-6.54-1.88c-3.72,0-5.28,1.69-5.28,3.11,0,2,2.55,2.73,5.37,3.76,3.3,1.18,7,2.73,7,7,0,5-4.19,7.77-9.94,7.77A23,23,0,0,1,485.68,147.07Z"/><path class="cls-1" d="M527.83,140.61l-2.5,7.77h-6.07l12-32.44h5.08L548,148.38h-6.31l-2.54-7.77ZM529,136h9.09l-4.52-13.56Z"/><path class="cls-1" d="M573.08,124.65v23.73h-5.7v-2.3a12,12,0,0,1-7.72,2.78c-4.75,0-7.11-2.78-7.11-7.68V124.65h5.7V139.3c0,2.59,1.18,4,3.86,4a9.47,9.47,0,0,0,5.27-2.17V124.65Z"/><path class="cls-1" d="M585.89,142.21a2.16,2.16,0,0,0,2.4,2.41,9.18,9.18,0,0,0,2.12-.24v4.1a31,31,0,0,1-4.43.38c-4.38,0-5.79-2.27-5.79-6.13V129.5h-3l.75-4.28h2.26v-5.75l5.7-1.41v7.16h4.8l-.75,4.28h-4.05Z"/><path class="cls-1" d="M615.51,131.86v16.43h-5.7V133.74c0-2.64-1.22-4-3.48-4-2.08-.1-4.19,1.08-5.65,2.12v16.43H595V116.18h5.7v10.5a12.36,12.36,0,0,1,7.15-2.69C612.31,123.9,615.51,126.58,615.51,131.86Z"/><path class="cls-1" d="M621,136.33c0-7,3.49-12.34,11.07-12.34s11.06,5.37,11.06,12.34-3.48,12.34-11.06,12.34S621,143.3,621,136.33Zm5.28,0c0,4.61,1.83,8.24,5.79,8.24s5.7-3.63,5.7-8.24-1.75-8.24-5.7-8.24S626.25,131.71,626.25,136.33Z"/><path class="cls-1" d="M648.76,148.29V124.65h5.69v4.52a8.93,8.93,0,0,1,8-4.57v4.48c-3.2-.38-7.3,2.16-8,4.33v14.88Z"/><path class="cls-1" d="M666.42,119.57a2.94,2.94,0,1,1,3,3A2.94,2.94,0,0,1,666.42,119.57Zm5.88,28.72h-5.7v-23h5.7Z"/><path class="cls-1" d="M686.71,142.21a2.16,2.16,0,0,0,2.4,2.41,9.18,9.18,0,0,0,2.12-.24v4.1a30.94,30.94,0,0,1-4.42.38c-4.38,0-5.8-2.27-5.8-6.13V129.5h-3l.75-4.28H681v-5.75l5.7-1.41v7.16h4.8l-.75,4.28h-4Z"/><path class="cls-1" d="M718.07,124.65l-11.44,32.21h-5.42l2.41-6.83-9.42-25.38h6.4L706.21,143l0,0,5.7-18.41Z"/><polygon class="cls-1" points="80.58 148.28 73.91 148.28 66.39 137.38 66.39 148.28 60.7 148.28 60.7 116.17 66.39 116.17 66.39 134.45 73.49 124.11 79.87 124.11 71.38 135.56 80.58 148.28"/><rect class="cls-2" x="753.19" y="29.18" width="99.04" height="1.88" transform="translate(122.55 457.47) rotate(-34.29)"/><rect class="cls-3" x="754.96" y="24.57" width="79.36" height="1.88" transform="translate(123.7 452.06) rotate(-34.28)"/><rect class="cls-4" x="757.09" y="21.16" width="55.27" height="1.88" transform="translate(124.54 446.87) rotate(-34.37)"/><rect class="cls-5" x="759.93" y="20.09" width="23" height="1.88" transform="translate(124.8 442.23) rotate(-34.64)"/><polygon class="cls-6" points="885.2 73.51 885.19 73.49 871.93 82.54 871.94 82.56 803.7 129.09 805.11 131.15 795.84 137.63 796.56 138.66 776.82 152.45 777.9 153.98 799.67 138.78 799.67 138.77 806.87 133.74 806.87 133.74 876.17 86.48 874.75 84.39 886.95 76.08 886.26 75.06 930.78 44.7 929.73 43.15 885.2 73.51"/><polygon class="cls-7" points="888.97 81.03 888.96 81.01 874.76 90.69 874.77 90.7 808.73 135.74 810.13 137.78 800.2 144.71 800.9 145.71 781.56 159.26 782.63 160.8 801.97 147.25 801.99 147.28 811.89 140.37 811.9 140.38 878.16 95.2 876.74 93.12 890.72 83.59 890.02 82.58 930.72 54.83 929.66 53.28 888.97 81.03"/><polygon class="cls-8" points="892.59 88.65 892.58 88.64 880.83 96.65 880.84 96.65 813.43 142.62 814.83 144.67 805.73 151.02 806.43 152.02 786.88 165.72 787.96 167.25 807.5 153.56 807.52 153.59 816.59 147.26 816.6 147.27 884.03 101.29 882.62 99.22 894.34 91.22 893.65 90.2 930.66 64.97 929.61 63.42 892.59 88.65"/><polygon class="cls-9" points="898.14 94.96 898.13 94.94 886.48 102.89 886.49 102.91 818.33 149.17 819.76 151.29 808.14 159.41 808.86 160.44 792.73 171.71 793.8 173.25 812.23 160.37 812.23 160.37 824.62 151.71 890.26 107.15 888.84 105.06 899.89 97.53 899.2 96.51 930.6 75.1 929.54 73.55 898.14 94.96"/><polygon class="cls-10" points="904.98 100.36 904.97 100.34 892.22 109.03 892.23 109.05 833.09 149.37 834.49 151.42 820.51 161.19 821.23 162.21 799.38 177.48 800.46 179.01 824.24 162.4 824.23 162.4 836.25 154 836.26 154.02 895.76 113.45 894.34 111.37 906.73 102.92 906.04 101.91 930.54 85.2 929.49 83.65 904.98 100.36"/><polygon class="cls-11" points="920.14 100.86 919.79 100.34 904.83 110.54 904.83 110.54 847.6 149.56 849.02 151.65 833.59 162.43 834.31 163.46 807.25 182.37 808.32 183.91 837.29 163.66 837.29 163.66 852.2 153.24 908 115.19 906.6 113.12 921.55 102.92 920.67 101.64 921.21 102.4 930.49 95.84 929.41 94.31 920.14 100.86"/><polygon class="cls-12" points="920.39 110.04 920.38 110.02 911.96 115.76 911.96 115.76 878.3 138.71 879.72 140.8 865.47 150.76 866.19 151.78 814.83 187.67 815.91 189.21 869.29 151.91 869.28 151.91 881.77 143.18 881.76 143.16 915.13 120.41 913.72 118.35 922.14 112.6 921.45 111.59 930.27 105.58 929.22 104.03 920.39 110.04"/><polygon class="cls-13" points="922.07 119.35 921.89 119.09 913.95 124.5 913.94 124.49 887.22 142.71 888.64 144.79 876.2 153.49 876.92 154.51 822.8 192.33 823.88 193.87 880.77 154.12 880.76 154.11 891.69 146.48 917.11 129.14 915.72 127.09 923.65 121.67 922.78 120.39 928.84 116.26 928.13 115.22 922.07 119.35"/><polygon class="cls-14" points="768.8 69.09 768.8 69.08 776.4 63.77 776.4 63.77 805.16 44.16 803.76 42.1 816.39 33.49 815.7 32.48 858.27 3.44 857.22 1.89 814.64 30.93 814.63 30.91 801.99 39.52 801.99 39.51 771.54 60.27 772.97 62.36 765.74 67.41 766.46 68.44 761.17 72.13 762.24 73.67 768.8 69.09"/><polygon class="cls-15" points="773.57 75.92 773.57 75.91 781.08 70.67 816.64 46.42 815.23 44.36 825.04 37.67 824.39 36.71 870.72 4.83 869.66 3.28 823.33 35.16 823.28 35.09 813.47 41.78 813.47 41.77 775.65 67.56 777.07 69.65 770.57 74.2 771.28 75.22 761.11 82.34 762.18 83.88 773.57 75.92"/><polygon class="cls-16" points="775.26 84.89 775.26 84.88 785.22 77.92 823.94 51.52 822.5 49.4 832.9 42.31 832.25 41.34 882.22 6.95 881.15 5.41 831.19 39.79 831.14 39.72 820.29 47.12 820.33 47.17 779.75 74.84 781.18 76.94 772.41 83.06 773.13 84.09 761.05 92.53 762.12 94.07 775.26 84.89"/><polygon class="cls-17" points="779.25 92.27 779.25 92.26 790.11 84.67 831.24 56.62 829.83 54.55 840.8 47.06 840.07 45.98 893.6 9.9 892.55 8.34 838.3 44.91 838.34 44.96 828.03 51.99 828.03 52 783.85 82.13 785.28 84.23 775.19 91.28 775.91 92.31 761.12 102.65 762.19 104.19 779.25 92.27"/><polygon class="cls-18" points="784.12 98.95 791.12 94.06 791.13 94.06 838.55 61.73 837.13 59.65 849.4 51.29 848.71 50.27 902.52 13.58 901.47 12.03 847.65 48.72 847.64 48.7 835.3 57.12 835.3 57.13 787.95 89.41 789.36 91.47 780.3 97.81 781.03 98.85 761.99 112.12 763.06 113.66 784.13 98.97 784.12 98.95"/><polygon class="cls-19" points="788.84 105.84 796.83 100.25 845.85 66.83 844.44 64.75 858.01 55.49 857.32 54.48 912.6 16.78 911.55 15.23 856.26 52.93 856.25 52.91 841.86 62.72 841.87 62.73 792.06 96.69 793.48 98.78 784.93 104.75 785.65 105.78 763.66 121.15 764.74 122.68 788.84 105.84 788.84 105.84"/><polygon class="cls-20" points="790.2 115.06 801.66 107.05 859.53 67.82 858.11 65.72 870.9 57 870.21 55.98 921.56 20.97 920.5 19.42 869.15 54.43 869.14 54.41 855.94 63.41 855.96 63.44 795.87 104.18 797.29 106.29 786.58 113.78 787.3 114.81 766.05 129.65 767.12 131.19 790.2 115.06 790.2 115.06"/><polygon class="cls-21" points="791.62 124.14 801.77 117.05 864.59 74.21 863.2 72.16 876.05 63.39 875.36 62.38 929.68 25.34 928.62 23.79 874.3 60.83 874.29 60.81 861.43 69.58 861.42 69.56 797.19 113.36 798.62 115.44 787.74 123.04 788.46 124.07 769.04 137.63 770.12 139.17 791.63 124.15 791.62 124.14"/><polygon class="cls-22" points="793.62 132.82 802.22 126.81 802.23 126.82 869.29 81.09 867.88 79.03 880.15 70.67 879.46 69.65 930.84 34.61 929.78 33.06 878.4 68.1 878.39 68.08 866.12 76.45 866.12 76.44 799.05 122.17 800.46 124.23 790.33 131.31 791.08 132.38 772.61 145.17 773.68 146.71 793.66 132.88 793.62 132.82"/><rect class="cls-23" x="820.99" y="164.42" width="113.07" height="1.88" transform="matrix(0.82, -0.57, 0.57, 0.82, 63, 531.34)"/><rect class="cls-24" x="830.35" y="174.44" width="95.29" height="1.88" transform="matrix(0.82, -0.57, 0.57, 0.82, 57.7, 534.19)"/><rect class="cls-25" x="862.85" y="180.67" width="41.86" height="1.88" transform="translate(55.17 538.62) rotate(-34.92)"/></svg>