<?xml version="1.0" encoding="utf-8"?>
<!-- Generator: Adobe Illustrator 24.0.3, SVG Export Plug-In . SVG Version: 6.00 Build 0)  -->
<svg version="1.1" id="Layer_1" xmlns="http://www.w3.org/2000/svg" xmlns:xlink="http://www.w3.org/1999/xlink" x="0px" y="0px"
	 viewBox="0 0 10 16" style="enable-background:new 0 0 10 16;" xml:space="preserve">
<style type="text/css">
	.st0{fill-rule:evenodd;clip-rule:evenodd;fill:#FFFFFF;}
</style>
<path class="st0" d="M5.5,13.1v1.9h2.9V16H1.7v-0.9h2.9v-1.9C2.4,12.9,0.6,11.6,0,9.5l0.9-0.3c0.6,1.8,2.2,3,4.1,3s3.5-1.2,4.1-3
	L10,9.5C9.4,11.6,7.6,12.9,5.5,13.1z M5,11.3c-1.8,0-3.3-1.5-3.3-3.3V7.5h6.7V8C8.3,9.8,6.8,11.3,5,11.3z M1.7,5.7H4V4.7H1.7V3.8H4
	V2.8H1.7C1.9,1.3,3.3,0,5,0s3.1,1.3,3.3,2.8H6v0.9h2.4v0.9H6v0.9h2.4v0.9H1.7V5.7z"/>
</svg>
