<svg width="32" height="27" viewBox="0 0 32 27" fill="none" xmlns="http://www.w3.org/2000/svg">
<path d="M13.1867 24.3541C19.6358 24.3541 24.8638 19.1262 24.8638 12.6771C24.8638 6.22801 19.6358 1 13.1867 1C6.73766 1 1.50964 6.22801 1.50964 12.6771C1.50964 19.1262 6.73766 24.3541 13.1867 24.3541Z" stroke="white" stroke-width="1.5" stroke-miterlimit="10"/>
<path d="M13.2661 8.9281V16.0805" stroke="white" stroke-width="1.5" stroke-miterlimit="10"/>
<path d="M16.8914 12.5043H9.63904" stroke="white" stroke-width="1.5" stroke-miterlimit="10"/>
<path d="M13.2652 17.3531C15.9804 17.3531 18.1815 15.1823 18.1815 12.5045C18.1815 9.82677 15.9804 7.65601 13.2652 7.65601C10.55 7.65601 8.349 9.82677 8.349 12.5045C8.349 15.1823 10.55 17.3531 13.2652 17.3531Z" stroke="white" stroke-width="1.5" stroke-miterlimit="10"/>
<path d="M22.8009 20.1949L30.9448 26" stroke="white" stroke-width="1.5" stroke-miterlimit="10"/>
</svg>
